<svg width="96" height="96" viewBox="0 0 96 96" fill="none" xmlns="http://www.w3.org/2000/svg">
<path fill-rule="evenodd" clip-rule="evenodd" d="M15.1499 23.4999C15.1499 22.202 16.202 21.1499 17.4999 21.1499H78.4999C79.7978 21.1499 80.8499 22.202 80.8499 23.4999V72.4999C80.8499 73.7978 79.7978 74.8499 78.4999 74.8499H17.4999C16.202 74.8499 15.1499 73.7978 15.1499 72.4999V23.4999ZM18.8499 24.8499V71.1499H77.1499V24.8499H18.8499Z"/>
<path fill-rule="evenodd" clip-rule="evenodd" d="M67.2001 18.1499C68.2218 18.1499 69.0501 18.9782 69.0501 19.9999V24.5105C69.0501 25.5323 68.2218 26.3605 67.2001 26.3605C66.1784 26.3605 65.3501 25.5323 65.3501 24.5105V19.9999C65.3501 18.9782 66.1784 18.1499 67.2001 18.1499Z"/>
<path fill-rule="evenodd" clip-rule="evenodd" d="M17 29C17 28.4477 17.4477 28 18 28L79 28C79.5523 28 80 28.4477 80 29C80 29.5523 79.5523 30 79 30L18 30C17.4477 30 17 29.5523 17 29Z"/>
<path fill-rule="evenodd" clip-rule="evenodd" d="M28.3998 18.1499C29.4215 18.1499 30.2498 18.9782 30.2498 19.9999V24.5105C30.2498 25.5323 29.4215 26.3605 28.3998 26.3605C27.3781 26.3605 26.5498 25.5323 26.5498 24.5105V19.9999C26.5498 18.9782 27.3781 18.1499 28.3998 18.1499Z"/>
<path fill-rule="evenodd" clip-rule="evenodd" d="M41.2001 18.1499C42.2218 18.1499 43.0501 18.9782 43.0501 19.9999V24.5105C43.0501 25.5323 42.2218 26.3605 41.2001 26.3605C40.1784 26.3605 39.3501 25.5323 39.3501 24.5105V19.9999C39.3501 18.9782 40.1784 18.1499 41.2001 18.1499Z"/>
<path fill-rule="evenodd" clip-rule="evenodd" d="M54.2001 18.1499C55.2218 18.1499 56.0501 18.9782 56.0501 19.9999V24.5105C56.0501 25.5323 55.2218 26.3605 54.2001 26.3605C53.1784 26.3605 52.3501 25.5323 52.3501 24.5105V19.9999C52.3501 18.9782 53.1784 18.1499 54.2001 18.1499Z"/>
<path d="M26 48.763V46.4155H28.728V39.1758H26.3756V37.3806C27.0609 37.2491 27.6407 37.0913 28.1152 36.9072C28.5896 36.7231 29.0509 36.4995 29.4989 36.2365H31.6339V46.4155H33.9863V48.763H26Z"/>
<path d="M40.2788 48.9998C39.6067 48.9998 38.9939 48.8617 38.4404 48.5855C37.8869 48.2962 37.4125 47.8753 37.0171 47.323C36.6349 46.7706 36.3318 46.0868 36.1078 45.2714C35.8969 44.456 35.7915 43.5157 35.7915 42.4504C35.7915 41.3852 35.8969 40.4514 36.1078 39.6492C36.3318 38.847 36.6349 38.1763 37.0171 37.6371C37.4125 37.0847 37.8869 36.677 38.4404 36.414C38.9939 36.1378 39.6067 35.9998 40.2788 35.9998C40.9509 35.9998 41.5638 36.1378 42.1173 36.414C42.6708 36.677 43.1386 37.0847 43.5208 37.6371C43.9161 38.1763 44.2193 38.847 44.4301 39.6492C44.6542 40.4514 44.7662 41.3852 44.7662 42.4504C44.7662 43.5157 44.6542 44.456 44.4301 45.2714C44.2193 46.0868 43.9161 46.7706 43.5208 47.323C43.1386 47.8753 42.6708 48.2962 42.1173 48.5855C41.5638 48.8617 40.9509 48.9998 40.2788 48.9998ZM40.2788 46.7509C40.5292 46.7509 40.7599 46.6917 40.9707 46.5734C41.1816 46.4418 41.3661 46.2117 41.5242 45.8829C41.6824 45.5541 41.801 45.1136 41.88 44.5612C41.9723 44.0089 42.0184 43.3053 42.0184 42.4504C42.0184 41.5956 41.9723 40.8986 41.88 40.3594C41.801 39.807 41.6824 39.3796 41.5242 39.0771C41.3661 38.7615 41.1816 38.5445 40.9707 38.4262C40.7599 38.3078 40.5292 38.2486 40.2788 38.2486C40.0416 38.2486 39.8176 38.3078 39.6067 38.4262C39.3959 38.5445 39.2114 38.7615 39.0532 39.0771C38.8951 39.3796 38.7699 39.807 38.6776 40.3594C38.5854 40.8986 38.5392 41.5956 38.5392 42.4504C38.5392 43.3053 38.5854 44.0089 38.6776 44.5612C38.7699 45.1136 38.8951 45.5541 39.0532 45.8829C39.2114 46.2117 39.3959 46.4418 39.6067 46.5734C39.8176 46.6917 40.0416 46.7509 40.2788 46.7509Z"/>
<path d="M46.3539 44.7979V42.7463H51.2169V44.7979H46.3539Z"/>
<path d="M53.4513 48.763V46.4155H56.1793V39.1758H53.8269V37.3806C54.5122 37.2491 55.092 37.0913 55.5665 36.9072C56.0409 36.7231 56.5021 36.4995 56.9502 36.2365H59.0852V46.4155H61.4376V48.763H53.4513Z"/>
<path d="M67.3941 48.9998C66.3661 48.9998 65.4963 48.8354 64.7847 48.5066C64.073 48.1647 63.4668 47.7438 62.966 47.2441L64.2707 45.4095C64.6529 45.7514 65.0614 46.0473 65.4963 46.2972C65.9444 46.5339 66.4386 46.6523 66.9789 46.6523C67.6247 46.6523 68.1386 46.4879 68.5208 46.1591C68.903 45.8303 69.0941 45.3437 69.0941 44.6993C69.0941 44.068 68.9096 43.588 68.5406 43.2592C68.1848 42.9305 67.7103 42.7661 67.1173 42.7661C66.9328 42.7661 66.7681 42.7792 66.6231 42.8055C66.4781 42.8187 66.3332 42.8516 66.1882 42.9042C66.0564 42.9568 65.9115 43.0225 65.7533 43.1014C65.6083 43.1803 65.4436 43.279 65.2591 43.3973L63.9544 42.5688L64.3102 36.2365H71.4267V38.6826H66.8208L66.6033 41.0301C66.8406 40.9249 67.0646 40.8526 67.2754 40.8131C67.4995 40.7605 67.7433 40.7342 68.0069 40.7342C68.5472 40.7342 69.0546 40.8131 69.529 40.9709C70.0166 41.1287 70.4449 41.3655 70.8139 41.6811C71.1829 41.9967 71.4729 42.3978 71.6837 42.8844C71.8946 43.371 72 43.9497 72 44.6204C72 45.3174 71.8748 45.9355 71.6244 46.4747C71.374 47.0139 71.038 47.4742 70.6162 47.8556C70.1945 48.2238 69.7003 48.5066 69.1336 48.7039C68.5801 48.9011 68.0003 48.9998 67.3941 48.9998Z"/>
<path d="M33.5684 66.1678C32.8684 66.1678 32.2804 66.0325 31.8044 65.7618C31.3378 65.4911 30.9458 65.0758 30.6284 64.5158L32.0284 63.4798C32.1964 63.7878 32.3924 64.0165 32.6164 64.1658C32.8404 64.3151 33.0691 64.3898 33.3024 64.3898C33.6758 64.3898 33.9558 64.2778 34.1424 64.0538C34.3384 63.8205 34.4364 63.4005 34.4364 62.7938V56.8718H36.4944V62.9618C36.4944 63.4005 36.4338 63.8158 36.3124 64.2078C36.2004 64.5998 36.0231 64.9405 35.7804 65.2298C35.5471 65.5191 35.2438 65.7478 34.8704 65.9158C34.5064 66.0838 34.0724 66.1678 33.5684 66.1678Z"/>
<path d="M40.1875 66.1678C39.8701 66.1678 39.5808 66.1118 39.3195 65.9998C39.0675 65.8971 38.8528 65.7525 38.6755 65.5658C38.4981 65.3698 38.3581 65.1458 38.2555 64.8938C38.1621 64.6418 38.1155 64.3665 38.1155 64.0678C38.1155 63.3398 38.4235 62.7705 39.0395 62.3598C39.6555 61.9491 40.6495 61.6738 42.0215 61.5338C42.0028 61.2258 41.9095 60.9831 41.7415 60.8058C41.5828 60.6191 41.3121 60.5258 40.9295 60.5258C40.6308 60.5258 40.3321 60.5818 40.0335 60.6938C39.7441 60.8058 39.4315 60.9598 39.0955 61.1558L38.3535 59.7978C38.8015 59.5271 39.2681 59.3078 39.7535 59.1398C40.2481 58.9718 40.7708 58.8878 41.3215 58.8878C42.2175 58.8878 42.8988 59.1445 43.3655 59.6578C43.8415 60.1618 44.0795 60.9505 44.0795 62.0238V65.9998H42.3995L42.2595 65.2858H42.2035C41.9048 65.5471 41.5921 65.7618 41.2655 65.9298C40.9388 66.0885 40.5795 66.1678 40.1875 66.1678ZM40.8875 64.5718C41.1208 64.5718 41.3215 64.5205 41.4895 64.4178C41.6575 64.3151 41.8348 64.1705 42.0215 63.9838V62.7658C41.2935 62.8685 40.7895 63.0178 40.5095 63.2138C40.2295 63.4098 40.0895 63.6431 40.0895 63.9138C40.0895 64.1378 40.1595 64.3058 40.2995 64.4178C40.4488 64.5205 40.6448 64.5718 40.8875 64.5718Z"/>
<path d="M45.8203 65.9998V56.1858H47.8783V58.5938L47.7803 59.8398C48.0416 59.6065 48.3449 59.3918 48.6903 59.1958C49.0356 58.9905 49.4463 58.8878 49.9223 58.8878C50.6783 58.8878 51.2243 59.1351 51.5603 59.6298C51.9056 60.1245 52.0783 60.8105 52.0783 61.6878V65.9998H50.0203V61.9538C50.0203 61.4498 49.9503 61.1045 49.8103 60.9178C49.6796 60.7311 49.4649 60.6378 49.1663 60.6378C48.9049 60.6378 48.6809 60.6985 48.4943 60.8198C48.3076 60.9318 48.1023 61.0951 47.8783 61.3098V65.9998H45.8203Z"/>
<path d="M53.8183 65.9998V59.0558H55.4983L55.6383 60.2738H55.6943C55.9463 59.7978 56.2497 59.4478 56.6043 59.2238C56.959 58.9998 57.3137 58.8878 57.6683 58.8878C57.8643 58.8878 58.023 58.9018 58.1443 58.9298C58.275 58.9485 58.3917 58.9811 58.4943 59.0278L58.1583 60.8058C58.0277 60.7685 57.9063 60.7405 57.7943 60.7218C57.6823 60.7031 57.5517 60.6938 57.4023 60.6938C57.141 60.6938 56.8657 60.7871 56.5763 60.9738C56.2963 61.1605 56.063 61.4918 55.8763 61.9678V65.9998H53.8183Z"/>
<path d="M62.3677 66.1678C61.8731 66.1678 61.4111 66.0885 60.9817 65.9298C60.5524 65.7618 60.1791 65.5238 59.8617 65.2158C59.5444 64.8985 59.2971 64.5158 59.1197 64.0678C58.9424 63.6198 58.8537 63.1065 58.8537 62.5278C58.8537 61.9678 58.9471 61.4638 59.1337 61.0158C59.3204 60.5585 59.5631 60.1758 59.8617 59.8678C60.1697 59.5505 60.5197 59.3078 60.9117 59.1398C61.3037 58.9718 61.7097 58.8878 62.1297 58.8878C62.6244 58.8878 63.0537 58.9718 63.4177 59.1398C63.7911 59.3078 64.0991 59.5411 64.3417 59.8398C64.5937 60.1385 64.7804 60.4931 64.9017 60.9038C65.0231 61.3051 65.0837 61.7438 65.0837 62.2198C65.0837 62.4065 65.0744 62.5838 65.0557 62.7518C65.0371 62.9198 65.0184 63.0458 64.9997 63.1298H60.8417C60.9351 63.6338 61.1404 64.0071 61.4577 64.2498C61.7844 64.4831 62.1811 64.5998 62.6477 64.5998C63.1424 64.5998 63.6417 64.4458 64.1457 64.1378L64.8317 65.3838C64.4771 65.6265 64.0804 65.8178 63.6417 65.9578C63.2124 66.0978 62.7877 66.1678 62.3677 66.1678ZM60.8277 61.7718H63.3337C63.3337 61.3798 63.2451 61.0625 63.0677 60.8198C62.8904 60.5771 62.5917 60.4558 62.1717 60.4558C61.8451 60.4558 61.5557 60.5631 61.3037 60.7778C61.0611 60.9925 60.9024 61.3238 60.8277 61.7718Z"/>
</svg>
