<svg width="96" height="96" viewBox="0 0 96 96" fill="none" xmlns="http://www.w3.org/2000/svg">
<path fill-rule="evenodd" clip-rule="evenodd" d="M15.1499 23.4999C15.1499 22.202 16.202 21.1499 17.4999 21.1499H78.4999C79.7978 21.1499 80.8499 22.202 80.8499 23.4999V72.4999C80.8499 73.7978 79.7978 74.8499 78.4999 74.8499H17.4999C16.202 74.8499 15.1499 73.7978 15.1499 72.4999V23.4999ZM18.8499 24.8499V71.1499H77.1499V24.8499H18.8499Z"/>
<path fill-rule="evenodd" clip-rule="evenodd" d="M67.2001 18.1499C68.2218 18.1499 69.0501 18.9782 69.0501 19.9999V24.5105C69.0501 25.5323 68.2218 26.3605 67.2001 26.3605C66.1784 26.3605 65.3501 25.5323 65.3501 24.5105V19.9999C65.3501 18.9782 66.1784 18.1499 67.2001 18.1499Z"/>
<path fill-rule="evenodd" clip-rule="evenodd" d="M17 29C17 28.4477 17.4477 28 18 28L79 28C79.5523 28 80 28.4477 80 29C80 29.5523 79.5523 30 79 30L18 30C17.4477 30 17 29.5523 17 29Z"/>
<path fill-rule="evenodd" clip-rule="evenodd" d="M28.3998 18.1499C29.4215 18.1499 30.2498 18.9782 30.2498 19.9999V24.5105C30.2498 25.5323 29.4215 26.3605 28.3998 26.3605C27.3781 26.3605 26.5498 25.5323 26.5498 24.5105V19.9999C26.5498 18.9782 27.3781 18.1499 28.3998 18.1499Z"/>
<path fill-rule="evenodd" clip-rule="evenodd" d="M41.2001 18.1499C42.2218 18.1499 43.0501 18.9782 43.0501 19.9999V24.5105C43.0501 25.5323 42.2218 26.3605 41.2001 26.3605C40.1784 26.3605 39.3501 25.5323 39.3501 24.5105V19.9999C39.3501 18.9782 40.1784 18.1499 41.2001 18.1499Z"/>
<path fill-rule="evenodd" clip-rule="evenodd" d="M54.2001 18.1499C55.2218 18.1499 56.0501 18.9782 56.0501 19.9999V24.5105C56.0501 25.5323 55.2218 26.3605 54.2001 26.3605C53.1784 26.3605 52.3501 25.5323 52.3501 24.5105V19.9999C52.3501 18.9782 53.1784 18.1499 54.2001 18.1499Z"/>
<path d="M37.7495 43.5554L39.3874 40.8331C39.7384 40.1229 40.0894 39.4127 40.4014 38.7223H40.4794C40.4404 39.5114 40.3624 40.7147 40.3624 41.5235V43.5554H37.7495ZM44.4574 43.5554H43.0339V36.2367H39.5239L35 43.7724V45.7648H40.3624V48.7633H43.0339V45.7648H44.4574V43.5554Z"/>
<path d="M45.7701 44.7982H50.567V42.7466H45.7701V44.7982Z"/>
<path d="M56.3786 38.17C57.2365 38.17 58.0555 38.8012 58.309 40.7739C57.7435 41.6813 57.0611 42.0167 56.4371 42.0167C55.5011 42.0167 54.8186 41.5235 54.8186 40.2018C54.8186 38.7815 55.5206 38.17 56.3786 38.17ZM52.3811 47.5008C53.1611 48.3096 54.3506 49 55.9886 49C58.6015 49 61 46.8892 61 42.214C61 37.8149 58.7185 36 56.3201 36C54.0776 36 52.2056 37.5979 52.2056 40.2018C52.2056 42.8452 53.7656 44.0683 55.8911 44.0683C56.6516 44.0683 57.724 43.5751 58.3675 42.7466C58.27 45.6662 57.178 46.6525 55.8131 46.6525C55.0916 46.6525 54.3116 46.2382 53.8826 45.7648L52.3811 47.5008Z"/>
<path d="M33.5684 66.168C32.8684 66.168 32.2804 66.0327 31.8044 65.762C31.3378 65.4914 30.9458 65.076 30.6284 64.516L32.0284 63.48C32.1964 63.788 32.3924 64.0167 32.6164 64.166C32.8404 64.3154 33.0691 64.39 33.3024 64.39C33.6758 64.39 33.9558 64.278 34.1424 64.054C34.3384 63.8207 34.4364 63.4007 34.4364 62.794V56.872H36.4944V62.962C36.4944 63.4007 36.4338 63.816 36.3124 64.208C36.2004 64.6 36.0231 64.9407 35.7804 65.23C35.5471 65.5194 35.2438 65.748 34.8704 65.916C34.5064 66.084 34.0724 66.168 33.5684 66.168Z"/>
<path d="M40.1875 66.168C39.8701 66.168 39.5808 66.112 39.3195 66C39.0675 65.8974 38.8528 65.7527 38.6755 65.566C38.4981 65.37 38.3581 65.146 38.2555 64.894C38.1621 64.642 38.1155 64.3667 38.1155 64.068C38.1155 63.34 38.4235 62.7707 39.0395 62.36C39.6555 61.9494 40.6495 61.674 42.0215 61.534C42.0028 61.226 41.9095 60.9834 41.7415 60.806C41.5828 60.6194 41.3121 60.526 40.9295 60.526C40.6308 60.526 40.3321 60.582 40.0335 60.694C39.7441 60.806 39.4315 60.96 39.0955 61.156L38.3535 59.798C38.8015 59.5274 39.2681 59.308 39.7535 59.14C40.2481 58.972 40.7708 58.888 41.3215 58.888C42.2175 58.888 42.8988 59.1447 43.3655 59.658C43.8415 60.162 44.0795 60.9507 44.0795 62.024V66H42.3995L42.2595 65.286H42.2035C41.9048 65.5474 41.5921 65.762 41.2655 65.93C40.9388 66.0887 40.5795 66.168 40.1875 66.168ZM40.8875 64.572C41.1208 64.572 41.3215 64.5207 41.4895 64.418C41.6575 64.3154 41.8348 64.1707 42.0215 63.984V62.766C41.2935 62.8687 40.7895 63.018 40.5095 63.214C40.2295 63.41 40.0895 63.6434 40.0895 63.914C40.0895 64.138 40.1595 64.306 40.2995 64.418C40.4488 64.5207 40.6448 64.572 40.8875 64.572Z"/>
<path d="M45.8203 66V56.186H47.8783V58.594L47.7803 59.84C48.0416 59.6067 48.3449 59.392 48.6903 59.196C49.0356 58.9907 49.4463 58.888 49.9223 58.888C50.6783 58.888 51.2243 59.1354 51.5603 59.63C51.9056 60.1247 52.0783 60.8107 52.0783 61.688V66H50.0203V61.954C50.0203 61.45 49.9503 61.1047 49.8103 60.918C49.6796 60.7314 49.4649 60.638 49.1663 60.638C48.9049 60.638 48.6809 60.6987 48.4943 60.82C48.3076 60.932 48.1023 61.0954 47.8783 61.31V66H45.8203Z"/>
<path d="M53.8183 66V59.056H55.4983L55.6383 60.274H55.6943C55.9463 59.798 56.2497 59.448 56.6043 59.224C56.959 59 57.3137 58.888 57.6683 58.888C57.8643 58.888 58.023 58.902 58.1443 58.93C58.275 58.9487 58.3917 58.9814 58.4943 59.028L58.1583 60.806C58.0277 60.7687 57.9063 60.7407 57.7943 60.722C57.6823 60.7034 57.5517 60.694 57.4023 60.694C57.141 60.694 56.8657 60.7874 56.5763 60.974C56.2963 61.1607 56.063 61.492 55.8763 61.968V66H53.8183Z"/>
<path d="M62.3677 66.168C61.8731 66.168 61.4111 66.0887 60.9817 65.93C60.5524 65.762 60.1791 65.524 59.8617 65.216C59.5444 64.8987 59.2971 64.516 59.1197 64.068C58.9424 63.62 58.8537 63.1067 58.8537 62.528C58.8537 61.968 58.9471 61.464 59.1337 61.016C59.3204 60.5587 59.5631 60.176 59.8617 59.868C60.1697 59.5507 60.5197 59.308 60.9117 59.14C61.3037 58.972 61.7097 58.888 62.1297 58.888C62.6244 58.888 63.0537 58.972 63.4177 59.14C63.7911 59.308 64.0991 59.5414 64.3417 59.84C64.5937 60.1387 64.7804 60.4934 64.9017 60.904C65.0231 61.3054 65.0837 61.744 65.0837 62.22C65.0837 62.4067 65.0744 62.584 65.0557 62.752C65.0371 62.92 65.0184 63.046 64.9997 63.13H60.8417C60.9351 63.634 61.1404 64.0074 61.4577 64.25C61.7844 64.4834 62.1811 64.6 62.6477 64.6C63.1424 64.6 63.6417 64.446 64.1457 64.138L64.8317 65.384C64.4771 65.6267 64.0804 65.818 63.6417 65.958C63.2124 66.098 62.7877 66.168 62.3677 66.168ZM60.8277 61.772H63.3337C63.3337 61.38 63.2451 61.0627 63.0677 60.82C62.8904 60.5774 62.5917 60.456 62.1717 60.456C61.8451 60.456 61.5557 60.5634 61.3037 60.778C61.0611 60.9927 60.9024 61.324 60.8277 61.772Z"/>
</svg>
