<svg width="96" height="96" viewBox="0 0 96 96" fill="none" xmlns="http://www.w3.org/2000/svg">
<path fill-rule="evenodd" clip-rule="evenodd" d="M15.1499 23.4999C15.1499 22.202 16.202 21.1499 17.4999 21.1499H78.4999C79.7978 21.1499 80.8499 22.202 80.8499 23.4999V72.4999C80.8499 73.7978 79.7978 74.8499 78.4999 74.8499H17.4999C16.202 74.8499 15.1499 73.7978 15.1499 72.4999V23.4999ZM18.8499 24.8499V71.1499H77.1499V24.8499H18.8499Z"/>
<path fill-rule="evenodd" clip-rule="evenodd" d="M67.2001 18.1499C68.2218 18.1499 69.0501 18.9782 69.0501 19.9999V24.5105C69.0501 25.5323 68.2218 26.3605 67.2001 26.3605C66.1784 26.3605 65.3501 25.5323 65.3501 24.5105V19.9999C65.3501 18.9782 66.1784 18.1499 67.2001 18.1499Z"/>
<path fill-rule="evenodd" clip-rule="evenodd" d="M17 29C17 28.4477 17.4477 28 18 28L79 28C79.5523 28 80 28.4477 80 29C80 29.5523 79.5523 30 79 30L18 30C17.4477 30 17 29.5523 17 29Z"/>
<path fill-rule="evenodd" clip-rule="evenodd" d="M28.3998 18.1499C29.4215 18.1499 30.2498 18.9782 30.2498 19.9999V24.5105C30.2498 25.5323 29.4215 26.3605 28.3998 26.3605C27.3781 26.3605 26.5498 25.5323 26.5498 24.5105V19.9999C26.5498 18.9782 27.3781 18.1499 28.3998 18.1499Z"/>
<path fill-rule="evenodd" clip-rule="evenodd" d="M41.2001 18.1499C42.2218 18.1499 43.0501 18.9782 43.0501 19.9999V24.5105C43.0501 25.5323 42.2218 26.3605 41.2001 26.3605C40.1784 26.3605 39.3501 25.5323 39.3501 24.5105V19.9999C39.3501 18.9782 40.1784 18.1499 41.2001 18.1499Z"/>
<path fill-rule="evenodd" clip-rule="evenodd" d="M54.2001 18.1499C55.2218 18.1499 56.0501 18.9782 56.0501 19.9999V24.5105C56.0501 25.5323 55.2218 26.3605 54.2001 26.3605C53.1784 26.3605 52.3501 25.5323 52.3501 24.5105V19.9999C52.3501 18.9782 53.1784 18.1499 54.2001 18.1499Z"/>
<path d="M32.6802 46.669V44.2378L36.194 43.0724L38.8892 42.128V42.0477L36.194 41.1033L32.6802 39.9379V37.5067L41.864 41.0631V43.1126L32.6802 46.669Z"/>
<path d="M43.9467 48.7586V46.3676H46.7019V38.9936H44.3261V37.1651C45.0182 37.0312 45.6038 36.8704 46.083 36.6829C46.5621 36.4954 47.028 36.2677 47.4805 35.9998H49.6367V46.3676H52.0126V48.7586H43.9467Z"/>
<path d="M58.0284 48.9998C56.9902 48.9998 56.1117 48.8323 55.393 48.4974C54.6743 48.1492 54.062 47.7205 53.5562 47.2115L54.8739 45.3429C55.2599 45.6912 55.6725 45.9925 56.1117 46.2471C56.5643 46.4882 57.0634 46.6087 57.6091 46.6087C58.2613 46.6087 58.7804 46.4413 59.1664 46.1064C59.5523 45.7715 59.7453 45.2759 59.7453 44.6195C59.7453 43.9766 59.559 43.4876 59.1863 43.1528C58.827 42.8179 58.3478 42.6505 57.7489 42.6505C57.5625 42.6505 57.3961 42.6638 57.2497 42.6906C57.1033 42.704 56.9569 42.7375 56.8105 42.7911C56.6774 42.8447 56.531 42.9117 56.3713 42.992C56.2249 43.0724 56.0585 43.1729 55.8722 43.2934L54.5545 42.4495L54.9138 35.9998H62.1012V38.4913H57.4494L57.2298 40.8823C57.4694 40.7751 57.6956 40.7015 57.9086 40.6613C58.1348 40.6077 58.3811 40.5809 58.6473 40.5809C59.193 40.5809 59.7054 40.6613 60.1846 40.822C60.677 40.9828 61.1096 41.2239 61.4823 41.5454C61.855 41.8668 62.1478 42.2754 62.3607 42.771C62.5737 43.2666 62.6802 43.856 62.6802 44.5392C62.6802 45.2491 62.5537 45.8787 62.3008 46.4279C62.048 46.9771 61.7086 47.4459 61.2826 47.8344C60.8567 48.2094 60.3576 48.4974 59.7853 48.6984C59.2263 48.8993 58.6406 48.9998 58.0284 48.9998Z"/>
<path d="M29.5626 66.1678C28.8626 66.1678 28.2746 66.0325 27.7986 65.7618C27.3319 65.4911 26.9399 65.0758 26.6226 64.5158L28.0226 63.4798C28.1906 63.7878 28.3866 64.0165 28.6106 64.1658C28.8346 64.3151 29.0632 64.3898 29.2966 64.3898C29.6699 64.3898 29.9499 64.2778 30.1366 64.0538C30.3326 63.8205 30.4306 63.4005 30.4306 62.7938V56.8718H32.4886V62.9618C32.4886 63.4005 32.4279 63.8158 32.3066 64.2078C32.1946 64.5998 32.0172 64.9405 31.7746 65.2298C31.5412 65.5191 31.2379 65.7478 30.8646 65.9158C30.5006 66.0838 30.0666 66.1678 29.5626 66.1678Z"/>
<path d="M36.1816 66.1678C35.8643 66.1678 35.5749 66.1118 35.3136 65.9998C35.0616 65.8971 34.8469 65.7525 34.6696 65.5658C34.4923 65.3698 34.3523 65.1458 34.2496 64.8938C34.1563 64.6418 34.1096 64.3665 34.1096 64.0678C34.1096 63.3398 34.4176 62.7705 35.0336 62.3598C35.6496 61.9491 36.6436 61.6738 38.0156 61.5338C37.9969 61.2258 37.9036 60.9831 37.7356 60.8058C37.5769 60.6191 37.3063 60.5258 36.9236 60.5258C36.6249 60.5258 36.3263 60.5818 36.0276 60.6938C35.7383 60.8058 35.4256 60.9598 35.0896 61.1558L34.3476 59.7978C34.7956 59.5271 35.2623 59.3078 35.7476 59.1398C36.2423 58.9718 36.7649 58.8878 37.3156 58.8878C38.2116 58.8878 38.8929 59.1445 39.3596 59.6578C39.8356 60.1618 40.0736 60.9505 40.0736 62.0238V65.9998H38.3936L38.2536 65.2858H38.1976C37.8989 65.5471 37.5863 65.7618 37.2596 65.9298C36.9329 66.0885 36.5736 66.1678 36.1816 66.1678ZM36.8816 64.5718C37.1149 64.5718 37.3156 64.5205 37.4836 64.4178C37.6516 64.3151 37.8289 64.1705 38.0156 63.9838V62.7658C37.2876 62.8685 36.7836 63.0178 36.5036 63.2138C36.2236 63.4098 36.0836 63.6431 36.0836 63.9138C36.0836 64.1378 36.1536 64.3058 36.2936 64.4178C36.4429 64.5205 36.6389 64.5718 36.8816 64.5718Z"/>
<path d="M41.8144 65.9998V56.1858H43.8724V58.5938L43.7744 59.8398C44.0358 59.6065 44.3391 59.3918 44.6844 59.1958C45.0298 58.9905 45.4404 58.8878 45.9164 58.8878C46.6724 58.8878 47.2184 59.1351 47.5544 59.6298C47.8997 60.1245 48.0724 60.8105 48.0724 61.6878V65.9998H46.0144V61.9538C46.0144 61.4498 45.9444 61.1045 45.8044 60.9178C45.6737 60.7311 45.4591 60.6378 45.1604 60.6378C44.8991 60.6378 44.6751 60.6985 44.4884 60.8198C44.3018 60.9318 44.0964 61.0951 43.8724 61.3098V65.9998H41.8144Z"/>
<path d="M49.8125 65.9998V59.0558H51.4925L51.6325 60.2738H51.6885C51.9405 59.7978 52.2438 59.4478 52.5985 59.2238C52.9531 58.9998 53.3078 58.8878 53.6625 58.8878C53.8585 58.8878 54.0171 58.9018 54.1385 58.9298C54.2691 58.9485 54.3858 58.9811 54.4885 59.0278L54.1525 60.8058C54.0218 60.7685 53.9005 60.7405 53.7885 60.7218C53.6765 60.7031 53.5458 60.6938 53.3965 60.6938C53.1351 60.6938 52.8598 60.7871 52.5705 60.9738C52.2905 61.1605 52.0571 61.4918 51.8705 61.9678V65.9998H49.8125Z"/>
<path d="M58.3619 66.1678C57.8672 66.1678 57.4052 66.0885 56.9759 65.9298C56.5465 65.7618 56.1732 65.5238 55.8559 65.2158C55.5385 64.8985 55.2912 64.5158 55.1139 64.0678C54.9365 63.6198 54.8479 63.1065 54.8479 62.5278C54.8479 61.9678 54.9412 61.4638 55.1279 61.0158C55.3145 60.5585 55.5572 60.1758 55.8559 59.8678C56.1639 59.5505 56.5139 59.3078 56.9059 59.1398C57.2979 58.9718 57.7039 58.8878 58.1239 58.8878C58.6185 58.8878 59.0479 58.9718 59.4119 59.1398C59.7852 59.3078 60.0932 59.5411 60.3359 59.8398C60.5879 60.1385 60.7745 60.4931 60.8959 60.9038C61.0172 61.3051 61.0779 61.7438 61.0779 62.2198C61.0779 62.4065 61.0685 62.5838 61.0499 62.7518C61.0312 62.9198 61.0125 63.0458 60.9939 63.1298H56.8359C56.9292 63.6338 57.1345 64.0071 57.4519 64.2498C57.7785 64.4831 58.1752 64.5998 58.6419 64.5998C59.1365 64.5998 59.6359 64.4458 60.1399 64.1378L60.8259 65.3838C60.4712 65.6265 60.0745 65.8178 59.6359 65.9578C59.2065 66.0978 58.7819 66.1678 58.3619 66.1678ZM56.8219 61.7718H59.3279C59.3279 61.3798 59.2392 61.0625 59.0619 60.8198C58.8845 60.5771 58.5859 60.4558 58.1659 60.4558C57.8392 60.4558 57.5499 60.5631 57.2979 60.7778C57.0552 60.9925 56.8965 61.3238 56.8219 61.7718Z"/>
<path d="M62.5 65.9998V59.0558H64.18L64.32 59.9378H64.376C64.6746 59.6578 65.0013 59.4151 65.356 59.2098C65.7106 58.9951 66.126 58.8878 66.602 58.8878C67.358 58.8878 67.904 59.1351 68.24 59.6298C68.5853 60.1245 68.758 60.8105 68.758 61.6878V65.9998H66.7V61.9538C66.7 61.4498 66.63 61.1045 66.49 60.9178C66.3593 60.7311 66.1446 60.6378 65.846 60.6378C65.5846 60.6378 65.3606 60.6985 65.174 60.8198C64.9873 60.9318 64.782 61.0951 64.558 61.3098V65.9998H62.5Z"/>
</svg>
