<svg data-v-aab8257a="" fill="none" viewBox="0 0 96 96" height="96px" width="96px" xmlns="http://www.w3.org/2000/svg">
<path xmlns="http://www.w3.org/2000/svg" d="M53.1997 41.6001C52.5997 41.6001 52.1997 42.0001 52.1997 42.6001C52.1997 43.2001 52.5997 43.6001 53.1997 43.6001H57.4997C58.0997 43.6001 58.4997 43.2001 58.4997 42.6001C58.4997 42.0001 58.0997 41.6001 57.4997 41.6001H53.1997Z"></path>
<path xmlns="http://www.w3.org/2000/svg" d="M27.5999 46.8C26.7999 46.2 25.6999 46.3 25.0999 47.1L8.39987 68.1C7.79987 68.9 7.89987 70 8.69987 70.6C8.99987 70.9 9.39987 71 9.79987 71C10.2999 71 10.7999 70.8 11.1999 70.3L27.8999 49.3C28.4999 48.5 28.3999 47.4 27.5999 46.8Z"></path>
<path xmlns="http://www.w3.org/2000/svg" d="M61.6 43.7999C61.6 44.3999 62.1 44.7999 62.7 44.6999C63.2 44.6999 63.7 44.1999 63.6 43.5999C63.3 40.1999 65.9 37.0999 69.4 36.8999C72.8 36.5999 75.9 39.1999 76.1 42.6999C76.3 44.7999 75.3 46.8999 73.6 48.1999C73.2 48.4999 73.1 49.1999 73.4 49.5999C73.6 49.8999 73.9 49.9999 74.2 49.9999C74.4 49.9999 74.6 49.8999 74.8 49.7999C77.1 48.0999 78.3 45.3999 78 42.5999C77.6 38.0999 73.7 34.5999 69.1 34.9999C64.7 35.2999 61.3 39.2999 61.6 43.7999Z"></path>
<path xmlns="http://www.w3.org/2000/svg" d="M81.1997 42.6001C81.1997 43.2001 81.5997 43.6001 82.1997 43.6001H86.4997C87.0997 43.6001 87.4997 43.2001 87.4997 42.6001C87.4997 42.0001 87.0997 41.6001 86.4997 41.6001H82.1997C81.6997 41.6001 81.1997 42.1001 81.1997 42.6001Z"></path>
<path xmlns="http://www.w3.org/2000/svg" d="M70.8999 30.3V26C70.8999 25.4 70.4999 25 69.8999 25C69.2999 25 68.8999 25.4 68.8999 26V30.3C68.8999 30.9 69.2999 31.3 69.8999 31.3C70.4999 31.3 70.8999 30.8 70.8999 30.3Z"></path>
<path xmlns="http://www.w3.org/2000/svg" d="M61.1001 34.8999C61.4001 34.8999 61.6001 34.7999 61.8001 34.5999C62.2001 34.1999 62.2001 33.5999 61.8001 33.1999L58.8001 30.1999C58.4001 29.7999 57.8001 29.7999 57.4001 30.1999C57.0001 30.5999 57.0001 31.1999 57.4001 31.5999L60.4001 34.5999C60.6001 34.7999 60.9001 34.8999 61.1001 34.8999Z"></path>
<path xmlns="http://www.w3.org/2000/svg" d="M77.9001 50.6999C77.5001 51.0999 77.5001 51.6999 77.9001 52.0999L80.9001 55.0999C81.1001 55.2999 81.4001 55.3999 81.6001 55.3999C81.8001 55.3999 82.1001 55.2999 82.3001 55.0999C82.7001 54.6999 82.7001 54.0999 82.3001 53.6999L79.3001 50.6999C78.9001 50.2999 78.3001 50.2999 77.9001 50.6999Z"></path>
<path xmlns="http://www.w3.org/2000/svg" d="M82.3001 30.1999C81.9001 29.7999 81.3001 29.7999 80.9001 30.1999L77.9001 33.1999C77.5001 33.5999 77.5001 34.1999 77.9001 34.5999C78.1001 34.7999 78.4001 34.8999 78.6001 34.8999C78.8001 34.8999 79.1001 34.7999 79.3001 34.5999L82.3001 31.5999C82.7001 31.1999 82.7001 30.5999 82.3001 30.1999Z"></path>
<path xmlns="http://www.w3.org/2000/svg" d="M86.0001 70.2999C86.3001 69.6999 86.2001 69 85.8001 68.4L68.5001 46.9C68.2001 46.5 67.7001 46.2 67.1001 46.2H26.6001C25.9001 46.2 25.3001 46.6 25.0001 47.2C24.7001 47.8 24.8001 48.5 25.2001 49.1L36.3001 63C36.3001 63.1 36.4001 63.1 36.5001 63.2L42.5001 70.5999C42.8001 70.9999 43.3001 71.2999 43.9001 71.2999H84.4001C85.1001 71.2999 85.7001 70.9 86.0001 70.2999ZM64.8001 67.7999L61.4001 63.5H68.9001L72.3001 67.7999H64.8001ZM54.8001 67.7999L51.4001 63.5H58.9001L62.3001 67.7999H54.8001ZM35.0001 55.7999H42.7001L47.2001 61.5H39.6001L35.0001 55.7999ZM45.3001 55.7999H52.8001L57.3001 61.5H49.8001L45.3001 55.7999ZM48.1001 49.7999L51.3001 53.7999H43.8001L40.6001 49.7999H48.1001ZM58.1001 49.7999L61.3001 53.7999H53.8001L50.6001 49.7999H58.1001ZM59.8001 61.5L55.3001 55.7999H62.8001L67.3001 61.5H59.8001ZM65.4001 55.7999H71.1001L75.7001 61.5H70.0001L65.4001 55.7999ZM69.5001 53.7999H63.9001L60.7001 49.7999H66.3001L69.5001 53.7999ZM38.0001 49.7999L41.2001 53.7999H33.5001L30.3001 49.7999H38.0001ZM41.2001 63.5H48.8001L52.2001 67.7999H44.7001L41.2001 63.5ZM74.9001 67.7999L71.5001 63.5H77.3001L80.8001 67.7999H74.9001Z"></path>
</svg>