<svg width="96" height="96" xmlns="http://www.w3.org/2000/svg"><defs><path id="a" d="M0 6.955V0h44.908v6.955H0z"/></defs><g fill="none" fill-rule="evenodd"><path  d="M28.798 52h40.11V35h-40.11z"/><path stroke-width="4.069" stroke-linecap="round" stroke-linejoin="round" d="M28.054 78.005h40.8v-51h-40.8z"/><path stroke-width="1.47" stroke-linejoin="round" d="M35.434 60.195v6.86h3.788v-6.86zM57.685 60.195v6.86h3.788v-6.86zM46.56 60.195v6.86h3.788v-6.86z"/><path d="M70.908 21.672c0-.708-.552-1.283-1.234-1.283H40.882c.033-1.15.04-2.3.004-3.45-.014-.438-.505-.768-1.18-.89l-.016-.001a2.002 2.002 0 0 0-.158-.023l-.01-.002a8.738 8.738 0 0 0-.174-.016h-.006a2.963 2.963 0 0 0-.164-.005L39.153 16H39.07c-.014 0-.026.002-.04.003-.968.02-1.662.426-1.688 1.03-.026.6-.006 1.203-.006 1.804 0 .518-.006 1.035 0 1.552h-1.858c.033-1.15.04-2.3.004-3.45-.014-.438-.505-.768-1.18-.89l-.016-.001c-.052-.01-.104-.018-.158-.023l-.01-.002a8.738 8.738 0 0 0-.174-.016h-.006a2.963 2.963 0 0 0-.164-.005L33.749 16H33.666c-.014 0-.026.002-.04.003-.968.02-1.662.426-1.688 1.03-.026.6-.006 1.203-.006 1.804 0 .518-.006 1.035 0 1.552h-4.698c-.681 0-1.234.575-1.234 1.283s.553 1.283 1.234 1.283h42.44c.682 0 1.234-.575 1.234-1.283" /></g></svg>