<svg width="96" height="96" xmlns="http://www.w3.org/2000/svg"><g fill="none" fill-rule="evenodd"><path stroke-width="3.617" stroke-linecap="round" stroke-linejoin="round" d="M79.766 30.083v-4.768h-36.56V72.23h36.56v-9.464"/><path stroke-width="1.47" stroke-linejoin="round" d="M50.002 35.338v6.405h3.634v-6.405zM50.002 49.192v6.405h3.634v-6.405z"/><path d="M37.497 72.151s-18.725.002-24.569 0c-1.436 0-1.772-.327-1.772-1.717V46.306c0-1.154-.404-1.559-1.578-1.564a451.2 451.2 0 0 0-5.203.002c-.608.004-1.148-.093-1.416-.708-.279-.64.108-1.047.541-1.45 2.566-2.394 23.494-21.824 25.84-24.005.86-.799 1.371-.812 2.203-.039 2.161 2.007 5.565 5.11 5.565 5.11" stroke-width="3.73" stroke-linecap="round" stroke-linejoin="round"/><path stroke-width="1.47" stroke-linecap="round" stroke-linejoin="round" d="M18.882 54.31h3.779v-6.626h-3.779zM35.002 54.309h-2.336v-6.625h2.337"/><path d="M81.822 20.118c0-.8-.624-1.45-1.395-1.45h-28.56c.038-1.3.045-1.306.004-2.605-.015-.497-.571-.87-1.332-1.007-.007 0-.013 0-.02-.002a2.12 2.12 0 0 0-.178-.026c-.004 0-.007 0-.011-.002a4.159 4.159 0 0 0-.198-.018h-.006a2.865 2.865 0 0 0-.186-.006c-.009 0-.018 0-.028-.002l-.035.001h-.059l-.045.002c-1.095.023-1.879.482-1.909 1.166-.029.678-.014 1.914-.005 2.5h-5.313c-.77 0-1.395.648-1.395 1.45 0 .8.625 1.45 1.395 1.45h37.881c.771 0 1.395-.65 1.395-1.45M11.8 29.437s-.012-4.297-.008-7.466c.002-.857.348-1.198 1.22-1.202 1.305-.008 2.61-.009 3.914 0 .855.006 1.206.367 1.213 1.223.005.736-.016.698.008 1.433L11.8 29.437z" /><g><path d="M73.45 57.316c6.576-1.398 10.773-7.862 9.376-14.437-1.398-6.576-7.862-10.774-14.438-9.376-6.575 1.398-10.773 7.862-9.375 14.437 1.397 6.576 7.861 10.774 14.437 9.376z" stroke-width="3.391" stroke-linecap="round" stroke-linejoin="round"/><path d="M94.258 64.331c-.098-.088-7.752-7.069-10.97-10.004l-.01-.035s-.925-.832-2.223-2.013c-.78 1.131-1.81 2.061-2.875 2.971l5.766 5.26.01.035s7.286 6.636 7.41 6.747c.846.756 2.18.707 2.978-.111a1.955 1.955 0 0 0-.086-2.85" /><path d="M94.258 64.331c-.098-.088-7.752-7.069-10.97-10.004l-.01-.035s-.925-.832-2.223-2.013c-.78 1.131-1.81 2.061-2.875 2.971l5.766 5.26.01.035s7.286 6.636 7.41 6.747c.846.756 2.18.707 2.978-.111a1.955 1.955 0 0 0-.086-2.85z" stroke-width="2.062" stroke-linecap="round" stroke-linejoin="round"/></g></g></svg>