<svg width="81" height="75" viewBox="0 0 81 75" fill="none" xmlns="http://www.w3.org/2000/svg">
<path d="M29.07 60.12C24.16 62.8 19.98 60.26 19.81 60.14C19.34 59.85 18.73 59.98 18.43 60.45C18.13 60.92 18.27 61.53 18.74 61.83C18.88 61.92 21.17 63.34 24.43 63.34C26.09 63.34 28.01 62.97 30.03 61.87C30.51 61.61 30.69 61 30.43 60.51C30.17 60.03 29.56 59.85 29.07 60.11V60.12Z"/>
<path d="M15.55 48C16.1022 48 16.55 47.5523 16.55 47C16.55 46.4477 16.1022 46 15.55 46C14.9977 46 14.55 46.4477 14.55 47C14.55 47.5523 14.9977 48 15.55 48Z"/>
<path d="M33.55 48C34.1022 48 34.55 47.5523 34.55 47C34.55 46.4477 34.1022 46 33.55 46C32.9977 46 32.55 46.4477 32.55 47C32.55 47.5523 32.9977 48 33.55 48Z"/>
<path d="M20.32 45.64C20.67 45.21 20.61 44.58 20.19 44.23C18.65 42.96 14.74 41.32 10.95 44.2C10.51 44.53 10.42 45.16 10.76 45.6C10.96 45.86 11.26 46 11.56 46C11.77 46 11.98 45.93 12.16 45.8C15.63 43.17 18.79 45.67 18.92 45.78C19.35 46.13 19.97 46.07 20.32 45.64Z"/>
<path d="M36.91 45.77C37.34 46.12 37.96 46.06 38.31 45.63C38.66 45.2 38.6 44.57 38.18 44.22C36.64 42.95 32.73 41.31 28.94 44.19C28.5 44.52 28.41 45.15 28.75 45.59C28.95 45.85 29.25 45.99 29.55 45.99C29.76 45.99 29.97 45.92 30.15 45.79C33.62 43.16 36.78 45.66 36.91 45.77Z"/>
<path d="M23.55 56C24.1 56 24.55 55.55 24.55 55V49C24.55 48.45 24.1 48 23.55 48C23 48 22.55 48.45 22.55 49V55C22.55 55.55 23 56 23.55 56Z"/>
<path d="M59.55 0C47.97 0 38.55 9.42 38.55 21V22.48C33.6 17.75 26.69 15.37 20.32 16.35C10.39 17.88 2.80996 26.67 2.68996 36.8C2.68996 37.41 2.69996 38.01 2.74996 38.6C2.70996 41.36 0.879962 59.34 0.0999616 66.94C-0.0800384 68.69 -0.100038 70.67 1.14996 72.06C2.13996 73.16 3.73996 73.69 6.03996 73.69H6.06996C10.55 73.69 15.08 72.05 16.66 71.42C18.85 73.18 21.55 74.09 24.28 74.09C27.01 74.09 29.66 73.22 31.89 71.47C32.1 71.31 32.33 71.12 32.57 70.91C33.82 71.88 36.69 73.57 41.63 73.65C41.67 73.65 41.72 73.65 41.76 73.65C43.39 73.65 44.65 73.19 45.51 72.27C46.47 71.25 46.88 69.72 46.73 67.71C46.44 63.88 45.97 58.25 45.53 53.13C45.15 48.63 44.76 44.02 44.62 42H59.56C71.14 42 80.56 32.58 80.56 21C80.56 9.42 71.13 0 59.55 0ZM20.62 18.33C27.01 17.35 34 20.11 38.55 25.38V37.11C24.21 36.51 20.22 27.99 20.05 27.62C19.86 27.18 19.39 26.95 18.92 27.05C18.46 27.15 18.13 27.57 18.13 28.04C18.13 28.37 18.06 35.89 4.76996 38.89C4.74996 38.67 4.73996 38.54 4.73996 38.53C4.69996 37.97 4.67996 37.4 4.67996 36.82C4.78996 27.66 11.64 19.71 20.61 18.33H20.62ZM6.04996 71.68H6.02996C4.35996 71.68 3.20996 71.35 2.62996 70.71C1.90996 69.91 1.93996 68.52 2.07996 67.14C2.66996 61.43 3.49996 53.25 4.07996 47.05C5.58996 53.86 8.69996 63.36 15.01 69.89C13.09 70.58 9.49996 71.68 6.04996 71.68ZM17.32 69.37C8.62996 61.2 5.80996 46.57 5.00996 40.88C15.22 38.62 18.55 33.75 19.62 30.68C21.92 33.69 27.39 38.66 38.54 39.1V41.99H42.48C41.38 59.58 33.86 67.34 30.63 69.88C26.67 73 20.95 72.77 17.32 69.36V69.37ZM44.04 70.89C43.56 71.4 42.75 71.66 41.64 71.64C37.59 71.58 35.15 70.3 34.03 69.51C37.09 66.4 41.23 60.61 43.32 50.85C43.39 51.63 43.45 52.44 43.53 53.3C43.96 58.41 44.43 64.03 44.72 67.86C44.83 69.28 44.6 70.3 44.04 70.89ZM59.55 40H40.55V21C40.55 10.52 49.07 2 59.55 2C70.03 2 78.55 10.52 78.55 21C78.55 31.48 70.03 40 59.55 40Z"/>
<path d="M58.93 27.53C56.83 27.53 55.32 26.28 54.66 24.15H60.66V22.15H54.32C54.31 21.95 54.3 21.75 54.3 21.54C54.3 21.42 54.3 21.3 54.3 21.18H62.22V19.18H54.59C55.23 16.85 56.88 15.47 59.2 15.47C60.26 15.47 61.36 15.97 62.14 16.81L63.61 15.45C62.44 14.19 60.84 13.47 59.21 13.47C55.74 13.47 53.28 15.64 52.54 19.18H51.35V21.18H52.32C52.32 21.3 52.32 21.42 52.32 21.54C52.32 21.75 52.32 21.95 52.33 22.15H51.36V24.15H52.6C53.37 27.49 55.69 29.53 58.94 29.53C60.87 29.53 62.47 28.77 63.83 27.22L62.33 25.9C61.35 27.01 60.28 27.53 58.94 27.53H58.93Z"/>
</svg>
