<svg width="96" height="96" xmlns="http://www.w3.org/2000/svg"><g fill="none" fill-rule="evenodd"><path d="M28.798 77.96h40.11v-17h-40.11z" fill="#1A96FD"/><path stroke="#1593FD" stroke-width="4" stroke-linecap="round" stroke-linejoin="round" d="M28.05 78.965h40.8v-51h-40.8z"/><path stroke="#1593FD" stroke-width="1.47" stroke-linejoin="round" d="M35.434 41.086v6.86h3.788v-6.86zM57.685 41.086v6.86h3.788v-6.86zM46.56 41.086v6.86h3.788v-6.86z"/><path d="M70.908 22.632c0-.708-.552-1.283-1.234-1.283H40.882c.033-1.15.04-2.3.004-3.45-.014-.438-.505-.768-1.18-.89l-.016-.001a2.002 2.002 0 0 0-.158-.023l-.01-.002a4.753 4.753 0 0 0-.174-.015h-.006a2.226 2.226 0 0 0-.164-.006l-.025-.002H39.07c-.014 0-.026.002-.04.003-.968.02-1.662.426-1.688 1.03-.026.6-.006 1.203-.006 1.804 0 .518-.006 1.035 0 1.552h-1.858c.033-1.15.04-2.3.004-3.45-.014-.438-.505-.768-1.18-.89l-.016-.001c-.052-.01-.104-.018-.158-.023l-.01-.002a4.753 4.753 0 0 0-.174-.015h-.006a2.226 2.226 0 0 0-.164-.006l-.025-.002H33.666c-.014 0-.026.002-.04.003-.968.02-1.662.426-1.688 1.03-.026.6-.006 1.203-.006 1.804 0 .518-.006 1.035 0 1.552h-4.698c-.681 0-1.234.575-1.234 1.283s.553 1.283 1.234 1.283h42.44c.682 0 1.234-.575 1.234-1.283" fill="#1593FD"/></g></svg>