<svg width="96" height="96" xmlns="http://www.w3.org/2000/svg"><g fill="none" fill-rule="evenodd"><g stroke="#1593FD" stroke-linejoin="round"><path d="M33.5 22.5h54.01" stroke-width="3.6" stroke-linecap="round"/><path d="M68.5 71.4h19.01" stroke-width="3" stroke-linecap="round"/><path d="M37.5 22.5v13.153M83.5 22.5v48.508" stroke-width="3.6" stroke-linecap="round"/><path stroke-width="1.4" d="M70.5 40.5H74v7h-3.5z"/></g><g transform="translate(8 38)"><path stroke="#1A96FD" stroke-width="1.2" stroke-linejoin="round" d="M13 17h3v6h-3zM40 17h3v6h-3z"/><path d="M1 34h54" stroke="#1A96FD" stroke-width="2" stroke-linecap="round"/><path d="M3 32.3h19.026M33 32.3h19.026M3.58 9.333H52" stroke="#1A96FD" stroke-width="2" stroke-linecap="square"/><path d="M.585 4h53.88" stroke="#1A96FD" stroke-width="3" stroke-linecap="round"/><path d="M3 4.6v28.825M53 4.6v28.825" stroke="#1A96FD" stroke-width="3" stroke-linecap="square"/><rect fill="#1A96FD" x="42" width="6" height="4" rx="1"/><path stroke="#1A96FD" stroke-width="2" stroke-linecap="round" stroke-linejoin="round" d="M24 20h9v13h-9z"/></g></g></svg>