<svg width="96" height="96" xmlns="http://www.w3.org/2000/svg"><g fill="none" fill-rule="evenodd"><g stroke="#1593FD" stroke-linejoin="round"><path stroke-width="4" d="M54.083 26.98H12L5 45.027h5V73.1h44.083"/><path stroke-width="4" d="M42.2 26.98h42.083l7 18.047h-5v28.074H42.2"/><path d="M4.816 43.539h84.186" stroke-width="2.4"/></g><g transform="translate(30 21.1)"><path d="M.814 22.438H37.42" stroke="#1A96FD" stroke-width="2.4" stroke-linejoin="round"/><path d="M2 22.9v29M36.4 22.9v29" stroke="#1A96FD" stroke-width="2" stroke-linecap="square"/><path stroke="#1A96FD" stroke-width="2" stroke-linecap="round" stroke-linejoin="round" d="M14.785 50.827h7.429V39.189h-7.429z"/><path stroke="#1A96FD" stroke-width="1.5" stroke-linecap="round" stroke-linejoin="round" d="M23.714 33.276h3.428v-5.838h-3.428zM9.858 33.276h3.428v-5.838H9.858z"/><path fill="#1A96FD" d="M1 7.9h36.605v-4H1zM1 54h36.605v-4.1H1z"/><rect fill="#1A96FD" x="26" width="7" height="6" rx="1"/><path d="M4.68 15.399l.685 2.051s.316.949 1.316.949h1M9.05 15.399l.685 2.051s.316.949 1.316.949h1M13.421 15.399l.684 2.051s.316.949 1.316.949h1M17.791 15.399l.684 2.051s.316.949 1.316.949h1M22.161 15.399l.684 2.051s.316.949 1.316.949h1M26.531 15.399l.684 2.051s.316.949 1.316.949h1M30.901 15.399l.684 2.051s.316.949 1.316.949h1M6.098 10.438l.684 2.051s.316.95 1.316.95h1M10.214 10.438l.684 2.051s.316.95 1.316.95h1M14.33 10.438l.684 2.051s.316.95 1.316.95h1M18.446 10.438l.684 2.051s.316.95 1.316.95h1M22.562 10.438l.684 2.051s.316.95 1.316.95h1M26.678 10.438l.684 2.051s.316.95 1.316.95h1" stroke="#1A96FD" stroke-width="1.3" stroke-linecap="round" stroke-linejoin="round"/></g></g></svg>