<svg width="96" height="96" xmlns="http://www.w3.org/2000/svg"><g fill="none" fill-rule="evenodd"><g stroke-linejoin="round"><path stroke-width="1.47" d="M20.441 45.668v6.18h3.357v-6.18zM45.297 45.668v6.18h3.358v-6.18zM32.87 45.668v6.18h3.356v-6.18zM32.87 32.318v6.18h3.356v-6.18z"/><path d="M55.438 71.5c1.572 0 1.94-.361 1.94-1.898l.001-25.26c0-1.275.441-1.722 1.726-1.727 1.9-.01 2.381-.011 4.28 0 .667.006 1.258-.101 1.551-.781.305-.71-.119-1.158-.592-1.604-2.81-2.646-25.725-24.128-28.293-26.54-.59-.553-1.035-.725-1.506-.595-.472-.13-.916.042-1.506.596C30.47 16.1 7.555 37.584 4.746 40.23c-.474.446-.898.895-.593 1.604.293.68.885.787 1.551.782 1.9-.012 2.381-.01 4.28-.001 1.285.005 1.726.452 1.726 1.728.002 8.892.001 16.367.001 25.259 0 1.537.368 1.898 1.94 1.898" stroke-width="4" stroke-linecap="round"/></g><g ><path d="M85.406 61.683c-.569-.165-1.104-.345-1.65-.475-.649-.154-.996-.535-1.16-1.185-.349-1.382-.779-2.747-1.126-4.13-.123-.495-.35-.596-.888-.418v14.307c0 .198.002.396 0 .593-.019.931-.414 1.405-1.155 1.388-.695-.017-1.1-.512-1.104-1.376-.007-1.53-.003-3.061-.003-4.592V61.99h-.827v.902c0 2.494-.002 4.987 0 7.48.001.608-.127 1.145-.795 1.345-.809.241-1.47-.308-1.479-1.252-.016-1.604-.005-3.209-.005-4.813V55.463c-.472-.164-.68-.052-.8.396-.403 1.496-.858 2.979-1.276 4.472-.14.502-.389.866-.953.857-.543-.009-.729-.396-.859-.86-.417-1.493-.874-2.976-1.277-4.472-.122-.45-.334-.554-.834-.381l2.127 8.947h-1.908v2.568c0 1.159.002 2.32 0 3.479-.002.863-.325 1.313-.938 1.323-.64.01-.985-.46-.986-1.362-.003-1.728 0-3.456 0-5.184v-.768h-.777v3.176c0 .938.006 1.876 0 2.814-.007.864-.336 1.309-.96 1.323-.626.014-.962-.426-.965-1.29-.004-1.728 0-3.456 0-5.184v-.868h-1.953l2.152-8.957c-.534-.262-.732-.032-.86.432-.392 1.423-.809 2.84-1.216 4.26-.027.094-.035.196-.069.287-.18.491-.502.836-1.056.69-.57-.151-.665-.627-.53-1.129.354-1.306.73-2.607 1.103-3.908.163-.567.317-1.14.52-1.693.446-1.22 1.292-1.803 2.586-1.81 1.086-.006 2.172-.006 3.258 0 1.32.008 2.18.61 2.61 1.881.3.878.537 1.777.941 2.688.221-.736.446-1.471.664-2.207.532-1.798 1.281-2.363 3.144-2.363a2471.7 2471.7 0 0 1 3.851 0c1.526.002 2.377.613 2.827 2.093.472 1.554.913 3.117 1.345 4.683.116.424.282.681.777.683 1.356.005 2.712.05 4.067.069 1.331.021 1.994.667 2.011 2.005.013.963.003 1.926.002 2.889 0 .396-.063.789-.552.809-.536.023-.62-.379-.62-.81 0-.74.02-1.482-.016-2.221-.01-.186-.199-.363-.306-.544-.099.189-.284.377-.286.566-.02 2.468-.013 4.937-.013 7.406 0 .221-.002.444 0 .666.002.558-.165 1.003-.819.988-.612-.014-.757-.439-.754-.969.006-1.185.028-2.371-.016-3.554-.013-.324.32-.847-.31-.933-.055-.008-.273.615-.285.95-.036 1.133-.013 2.27-.014 3.405 0 .557-.083 1.091-.792 1.1-.708.008-.799-.501-.797-1.075.008-2.765.003-5.53.003-8.295v-.848h.001zm-18.313-9.657c-1.064-.008-1.935-.862-1.945-1.907-.011-1.054.916-1.965 1.987-1.954 1.044.011 1.932.888 1.942 1.921.011 1.067-.89 1.948-1.984 1.94zm12.405-1.944a1.918 1.918 0 0 1-1.908 1.937 1.9 1.9 0 0 1-1.94-1.894 1.935 1.935 0 0 1 1.896-1.954c1.04-.013 1.939.867 1.952 1.91zm7.73 9.373c-.76 0-1.362-.602-1.35-1.348.01-.737.654-1.359 1.382-1.338a1.354 1.354 0 0 1 1.296 1.336c.01.781-.55 1.351-1.328 1.35zM21.38 66.83c-.012-.751-.666-1.384-1.408-1.362-.722.02-1.31.627-1.32 1.36-.01.795.56 1.376 1.353 1.376.773-.001 1.388-.613 1.375-1.373m8.805-7.725c-.011-1.051-.914-1.945-1.978-1.956-1.091-.01-2.035.917-2.024 1.99.01 1.066.898 1.935 1.98 1.943 1.115.009 2.033-.89 2.022-1.977m10.614-.004c-.013-1.063-.928-1.96-1.988-1.946a1.972 1.972 0 0 0-1.932 1.99c.01 1.09.88 1.939 1.977 1.93a1.955 1.955 0 0 0 1.943-1.974m9.226 8.173c-.01-.733-.597-1.34-1.32-1.361-.741-.021-1.395.612-1.407 1.364a1.357 1.357 0 0 0 1.375 1.373c.79 0 1.363-.581 1.352-1.376m2.474 7.066c0-.981.01-1.962-.002-2.942-.018-1.363-.693-2.022-2.048-2.042-1.381-.02-2.763-.067-4.144-.072-.503-.001-.672-.263-.791-.695-.44-1.594-.89-3.187-1.37-4.77-.457-1.507-1.326-2.13-2.88-2.132-1.307-.002-2.615-.001-3.922-.001-1.898 0-2.661.576-3.204 2.408-.221.75-.45 1.498-.676 2.248-.41-.928-.654-1.844-.958-2.738-.438-1.294-1.314-1.908-2.66-1.916a282.288 282.288 0 0 0-3.317 0c-1.318.007-2.18.602-2.635 1.844-.206.564-.362 1.147-.53 1.724-.31 1.08-.615 2.162-.914 3.245-.121.254-.311.4-.686.402-.144 0-.288.007-.432.008 0 0-1.316.055-1.973.059-.838.004-1.388.383-1.677 1.173-.132.359-.231.73-.337 1.098-.242.843-.485 1.687-.715 2.534-.088.325-.026.633.344.73.359.096.567-.128.684-.446.022-.06.027-.125.045-.186.264-.921.534-1.84.788-2.762.083-.301.21-.45.557-.28l-1.395 5.807h1.266v.563c0 1.12-.001 2.24.002 3.36 0 .56.218.846.624.836.405-.01.618-.297.622-.857.005-.607 0-1.216 0-1.824v-2.06h.503v3.859c.002.585.226.89.64.883.399-.006.607-.298.609-.857V76.62h1.237c-.468-1.972-1.232-6.033-1.222-6.281.332-.1.667-.208.998-.286.66-.158 1.014-.545 1.18-1.206.082-.32.174-.635.26-.952l-.013-.006c.272-.945.547-1.89.808-2.837.13-.472.33-.707.875-.441l-2.191 9.124h1.989v.885c0 1.759-.004 3.52 0 5.28.003.88.345 1.329.982 1.314.636-.015.97-.467.978-1.347.007-.955.002-1.911.002-2.866v-3.235h.789v.78c0 1.76-.002 3.522 0 5.282.002.918.354 1.398 1.006 1.387.625-.01.953-.47.954-1.346.003-1.182 0-2.364 0-3.546v-2.615h1.945l-2.167-9.114c.509-.176.726-.071.849.388.412 1.525.876 3.035 1.3 4.555.134.474.323.868.877.877.573.008.827-.362.97-.873.426-1.521.889-3.031 1.299-4.556.122-.456.335-.57.816-.403V74.96c0 1.635-.011 3.269.004 4.904.01.962.683 1.52 1.508 1.274.679-.203.81-.75.809-1.37-.002-2.54 0-5.08 0-7.618v-.92h.843v3.877c0 1.559-.004 3.118.002 4.677.004.88.418 1.384 1.126 1.4.754.019 1.156-.464 1.174-1.413.004-.201 0-.402 0-.603V64.596c.549-.182.78-.08.907.425.352 1.41.79 2.798 1.146 4.207.168.662.52 1.05 1.18 1.207.557.133 1.102.315 1.682.484v.865c0 2.816.005 5.632-.003 8.448-.002.585.09 1.103.813 1.095.72-.008.805-.553.805-1.12 0-1.156-.023-2.313.015-3.47.005-.156.055-.375.113-.564.067-.223.146-.407.176-.403.642.088.304.62.316.95.045 1.206.023 2.414.016 3.62-.003.54.145.974.768.988.667.015.836-.437.834-1.006v-.68c.002-2.514-.006-5.028.015-7.542 0-.193.189-.384.29-.576.109.184.302.364.312.554.037.752.017 1.508.017 2.262 0 .44.085.849.632.825.496-.021.56-.42.56-.824"/></g></g></svg>