<svg width="96" height="96" xmlns="http://www.w3.org/2000/svg"><g fill="none" fill-rule="evenodd"><path d="M85.517 65.78c-.578-.167-1.12-.35-1.676-.481-.658-.157-1.01-.543-1.177-1.203-.355-1.405-.792-2.79-1.143-4.195-.126-.503-.356-.605-.903-.424v14.529c0 .2.002.4 0 .6-.019.947-.42 1.428-1.172 1.41-.706-.016-1.119-.52-1.122-1.396-.006-1.554-.002-3.11-.002-4.663v-3.865h-.84v.917c0 2.532-.002 5.064 0 7.596.001.617-.13 1.162-.807 1.365-.823.245-1.493-.312-1.502-1.271-.017-1.63-.006-3.26-.006-4.888V59.464c-.479-.165-.69-.052-.813.403-.409 1.519-.87 3.025-1.295 4.54-.143.51-.395.88-.967.87-.55-.008-.74-.4-.872-.872-.424-1.516-.888-3.022-1.298-4.541-.124-.458-.339-.562-.846-.387.713 2.999 1.425 5.998 2.16 9.085h-1.938v2.608c0 1.177.002 2.356 0 3.533-.002.876-.33 1.333-.953 1.343-.65.01-1-.467-1-1.383-.004-1.754-.002-3.51-.002-5.264v-.78h-.787v3.226c0 .952.006 1.904-.002 2.857-.006.877-.34 1.329-.974 1.343-.636.015-.976-.433-.979-1.31-.004-1.755 0-3.51 0-5.264v-.881h-1.984l2.185-9.096c-.542-.266-.743-.032-.872.439-.399 1.445-.823 2.884-1.236 4.325-.027.097-.035.2-.07.292-.183.499-.509.849-1.072.7-.578-.152-.675-.635-.538-1.145.36-1.327.74-2.647 1.12-3.97.165-.575.321-1.156.527-1.718.454-1.24 1.313-1.831 2.626-1.838 1.103-.007 2.206-.007 3.31 0 1.338.008 2.212.62 2.65 1.91.303.89.545 1.804.955 2.729.225-.747.453-1.493.674-2.241.54-1.826 1.302-2.4 3.193-2.4 1.304 0 2.607-.001 3.911 0 1.55.003 2.414.623 2.87 2.126.48 1.578.927 3.166 1.366 4.755.118.43.287.692.79.694 1.376.005 2.753.05 4.13.07 1.351.02 2.024.678 2.041 2.037.013.977.003 1.955.002 2.933 0 .402-.064.8-.56.82-.545.025-.63-.383-.63-.821 0-.752.021-1.505-.016-2.255-.01-.19-.202-.37-.31-.553-.102.192-.29.383-.29.575-.02 2.506-.014 5.013-.014 7.52l-.002.676c.003.568-.166 1.019-.83 1.004-.622-.014-.769-.446-.766-.984.006-1.203.03-2.408-.016-3.61-.013-.328.325-.86-.315-.946-.056-.01-.277.624-.289.964-.037 1.15-.014 2.305-.014 3.458 0 .565-.085 1.108-.804 1.117-.72.008-.812-.51-.81-1.092.008-2.807.003-5.615.003-8.423v-.861h.001zm-18.596-9.806c-1.081-.008-1.965-.875-1.976-1.937-.01-1.069.93-1.995 2.019-1.984 1.06.011 1.96.902 1.972 1.951.01 1.083-.904 1.978-2.016 1.97zM79.517 54a1.948 1.948 0 0 1-1.938 1.967 1.93 1.93 0 0 1-1.97-1.924 1.964 1.964 0 0 1 1.926-1.983c1.056-.014 1.97.88 1.982 1.94zm7.85 9.518a1.352 1.352 0 0 1-1.371-1.369c.012-.749.664-1.38 1.404-1.358.72.02 1.306.625 1.315 1.356.01.793-.558 1.372-1.348 1.371z" /><path stroke-width="1.47" stroke-linecap="round" stroke-linejoin="round" d="M43 52.994v6.86h3.788v-6.86z"/><path d="M36.6 21.147c.424-.117.823.037 1.354.536 2.31 2.168 22.919 21.486 25.446 23.865.426.401.807.805.533 1.442-.264.612-.795.708-1.395.704a460.624 460.624 0 0 0-5.124 0c-1.156.004-1.552.406-1.552 1.553l-.001 23.99c0 1.38-.331 1.705-1.745 1.705-2.2.001-9.039.06-17.037.06" stroke-width="4.107" stroke-linecap="round"/><path d="M35.5 12.5v70.257" stroke-width="2" stroke-linecap="round"/><g stroke-linecap="round" stroke-linejoin="round" stroke-width="4.107"><path d="M30.82 21.68c-.415.389-22.919 21.487-25.446 23.866-.426.4-.807.805-.533 1.442.264.61.796.708 1.395.704 1.708-.012 3.416-.01 5.124-.002 1.156.005 1.552.407 1.552 1.555l.001 23.988c0 1.382.331 1.707 1.745 1.707H30.7"/></g></g></svg>