<svg width="96" height="96" xmlns="http://www.w3.org/2000/svg"><g fill="none" fill-rule="evenodd"><g stroke="#1593FD" stroke-linejoin="round"><path stroke-width="4" d="M54.083 27.98H12L5 46.027h5V74.1h44.083"/><path d="M4.816 44.539h49.267" stroke-width="2.4"/></g><g transform="translate(53 22.1)"><path d="M.814 22.438H37.42" stroke="#1A96FD" stroke-width="2.4" stroke-linejoin="round"/><path stroke="#1A96FD" stroke-width="4" stroke-linejoin="round" d="M.814 5.88h30.744l7 18.046h-5V52H.814"/><path d="M2 22.9v29" stroke="#1A96FD" stroke-width="2" stroke-linecap="square"/><rect fill="#1A96FD" x="19" width="8" height="5" rx="1"/><path stroke="#1A96FD" stroke-width="2" stroke-linecap="round" stroke-linejoin="round" d="M13.785 50.827h7.429V39.189h-7.429z"/><path stroke="#1A96FD" stroke-width="1.5" stroke-linecap="round" stroke-linejoin="round" d="M22.714 33.276h3.428v-5.838h-3.428zM8.858 33.276h3.428v-5.838H8.858z"/><path d="M1.68 15.399l.685 2.051s.316.949 1.316.949h1M6.05 15.399l.685 2.051s.316.949 1.316.949h1M10.421 15.399l.684 2.051s.316.949 1.316.949h1M14.791 15.399l.684 2.051s.316.949 1.316.949h1M19.161 15.399l.684 2.051s.316.949 1.316.949h1M23.531 15.399l.684 2.051s.316.949 1.316.949h1M27.901 15.399l.684 2.051s.316.949 1.316.949h1M3.098 10.438l.684 2.051s.316.95 1.316.95h1M7.214 10.438l.684 2.051s.316.95 1.316.95h1M11.33 10.438l.684 2.051s.316.95 1.316.95h1M15.446 10.438l.684 2.051s.316.95 1.316.95h1M19.562 10.438l.684 2.051s.316.95 1.316.95h1M23.678 10.438l.684 2.051s.316.95 1.316.95h1" stroke="#1A96FD" stroke-width="1.3" stroke-linecap="round" stroke-linejoin="round"/></g></g></svg>