<svg width="96" height="96" xmlns="http://www.w3.org/2000/svg"><g fill="none" fill-rule="evenodd" stroke-linejoin="round"><path d="M74.256 45.473C71.73 43.093 51.12 23.776 48.81 21.608c-.53-.5-.93-.653-1.354-.536-.424-.117-.824.037-1.355.536-2.31 2.168-22.919 21.486-25.446 23.865-.426.4-.807.805-.532 1.442.263.612.795.708 1.394.704 1.708-.011 3.416-.01 5.124-.001 1.156.005 1.553.407 1.553 1.554l.001 23.989c0 1.38.331 1.706 1.744 1.706h35.033c1.414 0 1.745-.325 1.745-1.706V49.17c.001-1.146.397-1.548 1.553-1.553 1.708-.008 3.416-.01 5.124 0 .6.005 1.131-.091 1.394-.703.275-.637-.106-1.041-.532-1.442z" stroke="#1593FD" stroke-linecap="round" stroke-width="4"/><g stroke="#1A96FD" stroke-width="2.31"><path d="M53.096 50.1v6.86h3.788V50.1zM38.036 50.1v6.86h3.788V50.1z"/></g></g></svg>