<svg width="96" height="96" xmlns="http://www.w3.org/2000/svg"><g fill="none" fill-rule="evenodd"><g stroke="#1593FD" stroke-linejoin="round"><path d="M33.426 21.087c-.424-.117-.823.037-1.354.536-2.31 2.168-22.92 21.486-25.446 23.865-.426.401-.807.805-.533 1.442.264.612.795.708 1.395.704 1.708-.01 3.416-.009 5.124 0 1.156.004 1.552.406 1.552 1.553v23.99c0 1.38.332 1.705 1.746 1.705l18.439.001" stroke-width="4" stroke-linecap="round"/><path d="M33.826 21.09c.424-.116.823.038 1.354.537 2.31 2.168 22.919 21.486 25.446 23.865.426.4.807.805.533 1.442-.264.612-.795.708-1.395.704a460.624 460.624 0 0 0-5.124-.001c-1.156.005-1.552.407-1.552 1.554l-.001 23.989c0 1.38-.331 1.706-1.745 1.706h-18.44" stroke-width="4" stroke-linecap="round"/><path stroke-width="1.47" d="M39.115 53.118v6.86h3.788v-6.86zM24.055 53.118v6.86h3.788v-6.86z"/></g><g fill="#1A96FD"><path d="M84.517 65.727c-.578-.168-1.12-.351-1.676-.482-.658-.157-1.01-.543-1.177-1.203-.355-1.405-.792-2.79-1.143-4.195-.126-.503-.356-.605-.903-.424v14.529c0 .2.002.401 0 .601-.019.946-.42 1.427-1.172 1.41-.706-.017-1.119-.52-1.122-1.397-.006-1.554-.002-3.109-.002-4.663v-3.865h-.84v.917c0 2.532-.002 5.064 0 7.596.001.617-.13 1.162-.807 1.365-.823.245-1.493-.312-1.502-1.271-.017-1.629-.006-3.259-.006-4.888V59.41c-.479-.165-.69-.052-.813.403-.409 1.519-.87 3.025-1.295 4.541-.143.51-.395.879-.967.87-.55-.009-.74-.401-.872-.873-.424-1.516-.888-3.022-1.298-4.541-.124-.458-.339-.562-.846-.387.713 2.999 1.425 5.998 2.16 9.085h-1.938v2.608c0 1.177.002 2.356 0 3.533-.002.876-.33 1.333-.953 1.343-.65.01-1-.467-1-1.383-.004-1.754-.002-3.51-.002-5.264v-.78h-.787v3.226c0 .952.006 1.904-.002 2.857-.006.877-.34 1.329-.974 1.343-.636.015-.976-.433-.979-1.31-.004-1.755 0-3.509 0-5.264v-.881h-1.984l2.185-9.096c-.542-.266-.743-.032-.872.439-.399 1.445-.823 2.884-1.236 4.325-.027.097-.035.2-.07.292-.183.499-.509.849-1.072.701-.578-.153-.675-.636-.538-1.146.36-1.327.74-2.647 1.12-3.969.165-.576.321-1.157.527-1.719.454-1.239 1.313-1.831 2.626-1.838 1.103-.007 2.206-.007 3.31 0 1.338.008 2.212.62 2.65 1.91.303.891.545 1.804.955 2.729.225-.747.453-1.493.674-2.241.54-1.826 1.302-2.399 3.193-2.399 1.304-.001 2.607-.002 3.911 0 1.55.002 2.414.622 2.87 2.125.48 1.578.927 3.166 1.366 4.755.118.431.287.692.79.694 1.376.005 2.753.051 4.13.071 1.351.02 2.024.677 2.041 2.036.013.977.003 1.955.002 2.933 0 .402-.064.801-.56.821-.545.024-.63-.384-.63-.822 0-.752.021-1.505-.016-2.255-.01-.189-.202-.369-.31-.553-.102.192-.29.383-.29.575-.02 2.506-.014 5.013-.014 7.52l-.002.676c.003.568-.166 1.019-.83 1.004-.622-.014-.769-.446-.766-.984.006-1.203.03-2.408-.016-3.609-.013-.329.325-.86-.315-.947-.056-.009-.277.624-.289.964-.037 1.151-.014 2.305-.014 3.458 0 .565-.085 1.108-.804 1.117-.72.008-.812-.509-.81-1.092.008-2.807.003-5.615.003-8.423v-.861h.001zM65.92 55.92c-1.08-.007-1.963-.874-1.974-1.936-.011-1.07.93-1.995 2.018-1.984 1.06.01 1.96.902 1.971 1.95.011 1.084-.904 1.979-2.015 1.97M78.517 53.946a1.948 1.948 0 0 1-1.938 1.967 1.93 1.93 0 0 1-1.97-1.924 1.964 1.964 0 0 1 1.926-1.983c1.056-.014 1.97.88 1.982 1.94"/><path d="M86.367 63.465a1.352 1.352 0 0 1-1.371-1.37c.012-.748.664-1.38 1.404-1.357.72.02 1.306.625 1.315 1.356.01.793-.558 1.372-1.348 1.37"/></g></g></svg>