<svg width="96" height="96" xmlns="http://www.w3.org/2000/svg"><g fill="none" fill-rule="evenodd"><path d="M65.962 48.233l8.42-.836-18.444-17v15.332H21.382l7.283 3.981-.283 6.123H46.16v6.83h19.485z" fill="#1A96FD"/><path d="M74.26 45.473c-2.526-2.38-23.135-21.697-25.445-23.865-.531-.5-.93-.653-1.354-.536-.424-.117-.824.037-1.355.536-2.31 2.168-22.92 21.486-25.446 23.865-.426.4-.807.805-.532 1.442.263.612.795.708 1.394.704 1.708-.011 3.416-.01 5.124-.001 1.156.005 1.553.407 1.553 1.554V73.16c0 1.38.332 1.706 1.745 1.706h35.033c1.414 0 1.745-.325 1.745-1.706V49.17c0-1.146.397-1.548 1.553-1.553 1.708-.008 3.416-.01 5.124 0 .599.005 1.13-.091 1.394-.703.275-.637-.106-1.041-.532-1.442z" stroke="#1593FD" stroke-linecap="round" stroke-linejoin="round" stroke-width="4"/></g></svg>