<?xml version="1.0" encoding="UTF-8"?>
<svg width="242px" height="242px" viewBox="0 0 242 242" version="1.1" xmlns="http://www.w3.org/2000/svg" xmlns:xlink="http://www.w3.org/1999/xlink">
    <!-- Generator: Sketch 49.2 (51160) - http://www.bohemiancoding.com/sketch -->
    <title>atom/image/img_generic-zipcode--homeday-idle-270px</title>
    <desc>Created with Sketch.</desc>
    <defs>
        <circle id="path-1" cx="120" cy="120" r="120"></circle>
        <polygon id="path-3" points="0.237431193 273.286624 327.132844 273.286624 327.132844 50.7927706 0.237431193 50.7927706"></polygon>
        <filter x="-1.8%" y="-2.7%" width="103.7%" height="105.4%" filterUnits="objectBoundingBox" id="filter-4">
            <feOffset dx="0" dy="0" in="SourceAlpha" result="shadowOffsetOuter1"></feOffset>
            <feGaussianBlur stdDeviation="2" in="shadowOffsetOuter1" result="shadowBlurOuter1"></feGaussianBlur>
            <feColorMatrix values="0 0 0 0 0   0 0 0 0 0   0 0 0 0 0  0 0 0 0.1 0" type="matrix" in="shadowBlurOuter1"></feColorMatrix>
        </filter>
        <path d="M93.8441101,27.6041092 C87.8573211,27.6041092 81.8705321,27.6085312 75.8815413,27.6018982 C72.8694312,27.5996872 70.365945,25.4351092 69.991633,22.5320541 C69.6239266,19.6710083 71.3633761,17.0531734 74.1927339,16.1842468 C74.9831927,15.9410358 75.7824587,16.0073661 76.5839266,16.0338982 C77.2598899,16.0537972 77.6209908,15.8525954 77.7795229,15.0721092 C78.3189725,12.4498523 79.858055,10.5351183 82.1765872,9.22398991 C84.2331009,8.06321009 86.3975046,7.97919174 88.6081468,8.58500826 C89.204844,8.74641193 89.405211,8.68450367 89.6231927,8.06321009 C91.0499817,4.01485229 93.8661284,1.45229266 98.1178716,0.881852294 C102.961908,0.234026606 106.632367,2.27699908 109.005945,6.52876972 C109.961541,8.23787982 110.263193,10.1725128 110.060624,12.131467 C109.963743,13.0578798 110.316037,13.1396872 111.09989,13.0556688 C114.16044,12.7240174 116.914936,14.2584578 118.306495,17.0752835 C119.966679,20.4315954 118.905394,24.0996596 116.058422,26.2111734 C114.754936,27.1751734 113.321541,27.6195862 111.700991,27.6129532 C105.749431,27.5908431 99.7956697,27.6041092 93.8441101,27.6041092" id="path-5"></path>
        <filter x="-13.2%" y="-20.5%" width="126.4%" height="148.4%" filterUnits="objectBoundingBox" id="filter-6">
            <feOffset dx="0" dy="1" in="SourceAlpha" result="shadowOffsetOuter1"></feOffset>
            <feGaussianBlur stdDeviation="2" in="shadowOffsetOuter1" result="shadowBlurOuter1"></feGaussianBlur>
            <feColorMatrix values="0 0 0 0 0   0 0 0 0 0   0 0 0 0 0  0 0 0 0.4 0" type="matrix" in="shadowBlurOuter1"></feColorMatrix>
        </filter>
        <path d="M196.576814,63.16406 C207.095302,63.16406 217.611581,63.17286 228.13007,63.16186 C233.423558,63.15526 237.82007,59.38446 238.476233,54.32666 C239.123558,49.34366 236.070302,44.78306 231.099372,43.26946 C229.709721,42.84486 228.304605,42.96146 226.897279,43.00766 C225.713093,43.04506 225.076814,42.69306 224.796233,41.33126 C223.850651,36.76406 221.146465,33.42886 217.072512,31.14746 C213.460302,29.12126 209.660302,28.97606 205.77414,30.02986 C204.72914,30.31366 204.375651,30.20586 203.991233,29.12126 C201.485884,22.06806 196.539256,17.60646 189.067395,16.61426 C180.559372,15.48346 174.110419,19.04306 169.941465,26.45046 C168.264605,29.42706 167.732163,32.79526 168.092279,36.20966 C168.260186,37.82226 167.639372,37.96526 166.262977,37.81786 C160.885535,37.24146 156.049372,39.91446 153.603674,44.82046 C150.687395,50.66806 152.549837,57.05906 157.551698,60.73746 C159.840535,62.41826 162.35914,63.19046 165.20693,63.17946 C175.663558,63.13986 186.120186,63.16406 196.576814,63.16406" id="path-7"></path>
        <filter x="-6.4%" y="-7.5%" width="112.7%" height="123.5%" filterUnits="objectBoundingBox" id="filter-8">
            <feOffset dx="0" dy="2" in="SourceAlpha" result="shadowOffsetOuter1"></feOffset>
            <feGaussianBlur stdDeviation="1.5" in="shadowOffsetOuter1" result="shadowBlurOuter1"></feGaussianBlur>
            <feColorMatrix values="0 0 0 0 0   0 0 0 0 0   0 0 0 0 0  0 0 0 0.5 0" type="matrix" in="shadowBlurOuter1"></feColorMatrix>
        </filter>
    </defs>
    <g id="atom/image/img_generic-zipcode--homeday-idle-270px" stroke="none" stroke-width="1" fill="none" fill-rule="evenodd">
        <g id="Pictogramm">
            <g id="Elements">
                <mask id="mask-2" fill="white">
                    <use xlink:href="#path-1"></use>
                </mask>
                <use id="Mask" fill="#C8C8C8" xlink:href="#path-1"></use>
                <g mask="url(#mask-2)">
                    <g transform="translate(-41.000000, 14.000000)">
                        <g id="Fill-6" stroke="none" fill="none">
                            <use fill="black" fill-opacity="1" filter="url(#filter-4)" xlink:href="#path-3"></use>
                            <use fill="#DCDCDC" fill-rule="evenodd" xlink:href="#path-3"></use>
                        </g>
                        <polygon id="Fill-8" stroke="none" fill-rule="evenodd" points="186.727119 149.818786 186.727119 108.11252 161.194642 84.0103092 135.659963 108.11252 135.659963 149.818786"></polygon>
                        <polygon id="Fill-9" stroke="none" fill-rule="evenodd" points="146.553761 122.179624 153.108624 122.179624 153.108624 111.648587 146.553761 111.648587"></polygon>
                        <polygon id="Fill-10" stroke="none" fill-rule="evenodd" points="169.281101 122.179624 175.835963 122.179624 175.835963 111.648587 169.281101 111.648587"></polygon>
                        <polygon id="Fill-11" stroke="none" fill-rule="evenodd" points="155.145321 149.81945 167.244404 149.81945 167.244404 130.382468 155.145321 130.382468"></polygon>
                        <polygon id="Fill-12" stroke="none" fill-rule="evenodd" points="79.0578349 56.1049413 79.0578349 43.8006752 71.5253578 36.6922807 63.9928807 43.8006752 63.9928807 56.1049413"></polygon>
                        <polygon id="Fill-13" stroke="none" fill-rule="evenodd" points="93.4131376 56.1049413 93.4131376 43.8006752 85.8806606 36.6922807 78.3481835 43.8006752 78.3481835 56.1049413"></polygon>
                        <polygon id="Fill-14" stroke="none" fill-rule="evenodd" points="107.76844 56.1049413 107.76844 43.8006752 100.235963 36.6922807 92.7034862 43.8006752 92.7034862 56.1049413"></polygon>
                        <polygon id="Fill-15" stroke="none" fill-rule="evenodd" points="253.174092 56.1049413 253.174092 43.8006752 245.641615 36.6922807 238.109138 43.8006752 238.109138 56.1049413"></polygon>
                        <polygon id="Fill-16" stroke="none" fill-rule="evenodd" points="268.238826 56.1049413 268.238826 43.8006752 260.706349 36.6922807 253.173872 43.8006752 253.173872 56.1049413"></polygon>
                        <polygon id="Fill-17" stroke="none" fill-rule="evenodd" points="283.303339 56.1049413 283.303339 43.8006752 275.770862 36.6922807 268.238385 43.8006752 268.238385 56.1049413"></polygon>
                        <polygon id="Fill-18" stroke="none" fill-rule="evenodd" points="271.452844 47.9516239 273.386055 47.9516239 273.386055 44.845156 271.452844 44.845156"></polygon>
                        <polygon id="Fill-19" stroke="none" fill-rule="evenodd" points="273.987156 56.1058257 277.55633 56.1058257 277.55633 50.3726789 273.987156 50.3726789"></polygon>
                        <polygon id="Fill-22" stroke="none" fill-rule="evenodd" points="139.83222 76.6465431 139.83222 55.7923046 127.065982 43.7423046 114.299743 55.7923046 114.299743 76.6465431"></polygon>
                        <polygon id="Fill-23" stroke="none" fill-rule="evenodd" points="119.74422 62.8272936 123.02055 62.8272936 123.02055 57.5628807 119.74422 57.5628807"></polygon>
                        <polygon id="Fill-24" stroke="none" fill-rule="evenodd" points="131.10789 62.8272936 134.38422 62.8272936 134.38422 57.5628807 131.10789 57.5628807"></polygon>
                        <polygon id="Fill-25" stroke="none" fill-rule="evenodd" points="124.042202 76.6461009 130.090642 76.6461009 130.090642 66.9265046 124.042202 66.9265046"></polygon>
                        <polygon id="Fill-26" stroke="none" fill-rule="evenodd" points="165.365358 76.6465431 165.365358 55.7923046 152.599119 43.7423046 139.832881 55.7923046 139.832881 76.6465431"></polygon>
                        <polygon id="Fill-27" stroke="none" fill-rule="evenodd" points="145.278899 62.8272936 148.555229 62.8272936 148.555229 57.5628807 145.278899 57.5628807"></polygon>
                        <polygon id="Fill-28" stroke="none" fill-rule="evenodd" points="156.642569 62.8272936 159.918899 62.8272936 159.918899 57.5628807 156.642569 57.5628807"></polygon>
                        <polygon id="Fill-29" stroke="none" fill-rule="evenodd" points="149.574679 76.6461009 155.623119 76.6461009 155.623119 66.9265046 149.574679 66.9265046"></polygon>
                        <polygon id="Fill-30" stroke="none" fill-rule="evenodd" points="190.898495 76.6465431 190.898495 55.7923046 178.132257 43.7423046 165.366018 55.7923046 165.366018 76.6465431"></polygon>
                        <polygon id="Fill-31" stroke="none" fill-rule="evenodd" points="170.811376 62.8272936 174.087706 62.8272936 174.087706 57.5628807 170.811376 57.5628807"></polygon>
                        <polygon id="Fill-32" stroke="none" fill-rule="evenodd" points="182.175046 62.8272936 185.451376 62.8272936 185.451376 57.5628807 182.175046 57.5628807"></polygon>
                        <polygon id="Fill-33" stroke="none" fill-rule="evenodd" points="175.107156 76.6461009 181.155596 76.6461009 181.155596 66.9265046 175.107156 66.9265046"></polygon>
                        <polygon id="Fill-34" stroke="none" fill-rule="evenodd" points="216.431633 76.6465431 216.431633 55.7923046 203.665394 43.7423046 190.899156 55.7923046 190.899156 76.6465431"></polygon>
                        <polygon id="Fill-35" stroke="none" fill-rule="evenodd" points="196.343853 62.8272936 199.620183 62.8272936 199.620183 57.5628807 196.343853 57.5628807"></polygon>
                        <polygon id="Fill-36" stroke="none" fill-rule="evenodd" points="207.707523 62.8272936 210.983853 62.8272936 210.983853 57.5628807 207.707523 57.5628807"></polygon>
                        <polygon id="Fill-37" stroke="none" fill-rule="evenodd" points="200.639633 76.6461009 206.688073 76.6461009 206.688073 66.9265046 200.639633 66.9265046"></polygon>
                        <polygon id="Fill-38" stroke="none" fill-rule="evenodd" points="241.964771 76.6465431 241.964771 55.7923046 229.198532 43.7423046 216.432294 55.7923046 216.432294 76.6465431"></polygon>
                        <polygon id="Fill-39" stroke="none" fill-rule="evenodd" points="221.878532 62.8272936 225.154862 62.8272936 225.154862 57.5628807 221.878532 57.5628807"></polygon>
                        <polygon id="Fill-40" stroke="none" fill-rule="evenodd" points="233.242202 62.8272936 236.518532 62.8272936 236.518532 57.5628807 233.242202 57.5628807"></polygon>
                        <polygon id="Fill-41" stroke="none" fill-rule="evenodd" points="226.174312 76.6461009 232.222752 76.6461009 232.222752 66.9265046 226.174312 66.9265046"></polygon>
                        <path d="M307.046522,89.5382743 L225.017165,89.5382743 C225.017165,89.5382743 200.796981,89.5382743 200.796981,113.859375 L200.796981,145.012494 C200.796981,145.012494 200.796981,164.911577 180.980467,164.911577 L156.212027,164.911577 C156.212027,164.911577 129.790009,164.911577 129.790009,191.443687 L129.790009,275.218825" id="Stroke-42" stroke-width="7" fill="none"></path>
                        <path d="M307.046522,89.5382743 L225.017165,89.5382743 C225.017165,89.5382743 200.796981,89.5382743 200.796981,113.859375 L200.796981,145.012494 C200.796981,145.012494 200.796981,164.911577 180.980467,164.911577 L156.212027,164.911577 C156.212027,164.911577 129.790009,164.911577 129.790009,191.443687 L129.790009,275.218825" id="Stroke-42-Copy" stroke-width="2" fill="none" stroke-dasharray="6,6,6,4"></path>
                        <polygon id="Fill-50" stroke="none" fill-rule="evenodd" points="254.260917 134.539165 295.082936 134.539165 295.082936 62.3143394 254.260917 62.3143394"></polygon>
                        <polygon id="Fill-51" stroke="none" fill-rule="evenodd" points="271.754495 83.7854495 278.234495 83.7854495 278.234495 73.3738073 271.754495 73.3738073"></polygon>
                        <polygon id="Fill-52" stroke="none" fill-rule="evenodd" points="260.738716 83.7854495 267.218716 83.7854495 267.218716 73.3738073 260.738716 73.3738073"></polygon>
                        <polygon id="Fill-53" stroke="none" fill-rule="evenodd" points="260.738716 98.0995229 267.218716 98.0995229 267.218716 87.6878807 260.738716 87.6878807"></polygon>
                        <polygon id="Fill-54" stroke="none" fill-rule="evenodd" points="271.754495 112.415807 278.234495 112.415807 278.234495 102.004165 271.754495 102.004165"></polygon>
                        <polygon id="Fill-55" stroke="none" fill-rule="evenodd" points="260.738716 112.415807 267.218716 112.415807 267.218716 102.004165 260.738716 102.004165"></polygon>
                        <polygon id="Fill-56" stroke="none" fill-rule="evenodd" points="271.754495 126.729881 278.234495 126.729881 278.234495 116.318239 271.754495 116.318239"></polygon>
                        <polygon id="Fill-57" stroke="none" fill-rule="evenodd" points="260.738716 126.729881 267.218716 126.729881 267.218716 116.318239 260.738716 116.318239"></polygon>
                        <polygon id="Fill-58" stroke="none" fill-rule="evenodd" points="217.250275 368.36444 393.40367 368.36444 393.40367 141.357917 217.250275 141.357917"></polygon>
                        <polygon id="Fill-59" stroke="none" fill-rule="evenodd" points="269.281835 214.391972 288.301284 214.391972 288.301284 183.833615 269.281835 183.833615"></polygon>
                        <polygon id="Fill-60" stroke="none" fill-rule="evenodd" points="18.252844 108.91578 59.0748624 108.91578 59.0748624 36.6909541 18.252844 36.6909541"></polygon>
                        <polygon id="Fill-61" stroke="none" fill-rule="evenodd" points="63.6106422 108.91578 91.4726606 108.91578 91.4726606 61.4166697 63.6106422 61.4166697"></polygon>
                        <polygon id="Fill-62" stroke="none" fill-rule="evenodd" points="35.0990826 58.1642752 41.5790826 58.1642752 41.5790826 47.752633 35.0990826 47.752633"></polygon>
                        <polygon id="Fill-63" stroke="none" fill-rule="evenodd" points="46.1148624 58.1642752 52.5948624 58.1642752 52.5948624 47.752633 46.1148624 47.752633"></polygon>
                        <polygon id="Fill-64" stroke="none" fill-rule="evenodd" points="46.1148624 72.4783486 52.5948624 72.4783486 52.5948624 62.0667064 46.1148624 62.0667064"></polygon>
                        <polygon id="Fill-65" stroke="none" fill-rule="evenodd" points="35.0990826 86.794633 41.5790826 86.794633 41.5790826 76.3829908 35.0990826 76.3829908"></polygon>
                        <polygon id="Fill-66" stroke="none" fill-rule="evenodd" points="46.1148624 86.794633 52.5948624 86.794633 52.5948624 76.3829908 46.1148624 76.3829908"></polygon>
                        <polygon id="Fill-67" stroke="none" fill-rule="evenodd" points="35.0990826 101.108706 41.5790826 101.108706 41.5790826 90.6970642 35.0990826 90.6970642"></polygon>
                        <polygon id="Fill-68" stroke="none" fill-rule="evenodd" points="46.1148624 101.108706 52.5948624 101.108706 52.5948624 90.6970642 46.1148624 90.6970642"></polygon>
                        <polygon id="Fill-69" stroke="none" fill-rule="evenodd" points="79.5585321 77.0706147 85.3185321 77.0706147 85.3185321 67.8175413 79.5585321 67.8175413"></polygon>
                        <polygon id="Fill-70" stroke="none" fill-rule="evenodd" points="69.7669725 89.7949725 75.5269725 89.7949725 75.5269725 80.5418991 69.7669725 80.5418991"></polygon>
                        <polygon id="Fill-71" stroke="none" fill-rule="evenodd" points="79.5585321 89.7949725 85.3185321 89.7949725 85.3185321 80.5418991 79.5585321 80.5418991"></polygon>
                        <polygon id="Fill-72" stroke="none" fill-rule="evenodd" points="69.7669725 102.51933 75.5269725 102.51933 75.5269725 93.2662569 69.7669725 93.2662569"></polygon>
                        <polygon id="Fill-73" stroke="none" fill-rule="evenodd" points="41.2642202 265.766982 125.39633 265.766982 125.39633 116.915211 41.2642202 116.915211"></polygon>
                        <polygon id="Fill-74" stroke="none" fill-rule="evenodd" points="77.3214679 161.16856 90.6755963 161.16856 90.6755963 139.712927 77.3214679 139.712927"></polygon>
                        <polygon id="Fill-75" stroke="none" fill-rule="evenodd" points="54.6183486 161.16856 67.9724771 161.16856 67.9724771 139.712927 54.6183486 139.712927"></polygon>
                        <polygon id="Fill-76" stroke="none" fill-rule="evenodd" points="100.022385 190.670055 113.376514 190.670055 113.376514 169.214422 100.022385 169.214422"></polygon>
                        <polygon id="Fill-77" stroke="none" fill-rule="evenodd" points="54.6183486 190.670055 67.9724771 190.670055 67.9724771 169.214422 54.6183486 169.214422"></polygon>
                        <polygon id="Fill-78" stroke="none" fill-rule="evenodd" points="100.022385 220.17155 113.376514 220.17155 113.376514 198.715917 100.022385 198.715917"></polygon>
                        <polygon id="Fill-79" stroke="none" fill-rule="evenodd" points="77.3214679 220.17155 90.6755963 220.17155 90.6755963 198.715917 77.3214679 198.715917"></polygon>
                        <polygon id="Fill-80" stroke="none" fill-rule="evenodd" points="54.6183486 220.17155 67.9724771 220.17155 67.9724771 198.715917 54.6183486 198.715917"></polygon>
                        <g id="Fill-21" stroke="none" fill="none">
                            <use fill="black" fill-opacity="1" filter="url(#filter-6)" xlink:href="#path-5"></use>
                            <use fill-rule="evenodd" xlink:href="#path-5"></use>
                        </g>
                    </g>
                </g>
            </g>
            <g id="Cloud-Ontop">
                <use fill="black" fill-opacity="1" filter="url(#filter-8)" xlink:href="#path-7"></use>
                <use fill-rule="evenodd" xlink:href="#path-7"></use>
            </g>
        </g>
    </g>
</svg>