<svg width="57" height="71" viewBox="0 0 57 71" fill="none" xmlns="http://www.w3.org/2000/svg">
<path d="M53.72 28.82L54.71 28.12C56.44 26.91 56.85 24.52 55.64 22.79C54.43 21.06 52.04 20.65 50.31 21.86L49.77 22.24V18.42L53.67 14.74C54.43 14.05 54.87 13.12 54.92 12.09C54.97 11.06 54.62 10.09 53.93 9.32998C53.26 8.58998 52.21 8.16998 51.05 8.16998H51C50.57 8.16998 50.15 8.24998 49.75 8.35998V5.51998C49.75 3.01998 47.71 0.97998 45.21 0.97998H24.28C21.78 0.97998 19.74 3.01998 19.74 5.51998V15.1C18.56 14.05 17.01 13.36 15.27 14.01C12.38 15.1 12.55 18.07 12.74 21.22C12.78 21.9 12.82 22.61 12.84 23.35C12.91 26.49 11.11 31.08 10.24 33.29C10.04 33.81 9.87998 34.22 9.77998 34.49C8.58998 37.97 8.80998 40.38 8.97998 42.32C9.04998 43.14 9.11998 43.85 9.06998 44.52C8.99998 45.4 8.75998 45.95 8.53998 46.29L5.38998 43.31L0.97998 47.98L2.42998 49.35L5.46998 46.13L26.08 65.61L23.04 68.83L24.49 70.2L28.9 65.53L25.83 62.63C27.32 60.68 28.95 58.97 29.5 58.83C29.68 58.78 29.9 58.74 30.16 58.68C32 58.29 35.29 57.6 37 54.96H45.19C47.69 54.96 49.73 52.92 49.73 50.42V44.38L51.78 43.34C52.69 42.88 53.37 42.09 53.68 41.11C54 40.14 53.91 39.1 53.45 38.19C53.15 37.61 52.71 37.14 52.19 36.78L54.15 35.78C56.03 34.82 56.78 32.52 55.82 30.64C55.37 29.76 54.61 29.1 53.68 28.78L53.72 28.82ZM50.66 24.07L51.46 23.51C52.28 22.93 53.42 23.13 54 23.95C54.58 24.77 54.38 25.91 53.56 26.49L48 30.4L47.02 30.9C46.8 30.94 46.57 30.95 46.34 30.91C45.86 30.83 45.44 30.56 45.16 30.16C44.88 29.76 44.77 29.28 44.86 28.8C44.95 28.32 45.21 27.9 45.61 27.62L50.66 24.07ZM44.46 25.98C43.62 26.57 43.07 27.45 42.89 28.45C42.71 29.45 42.94 30.47 43.53 31.31C43.79 31.68 44.11 31.96 44.45 32.2L44.34 32.26C43.43 32.72 42.75 33.51 42.44 34.49C42.12 35.46 42.21 36.5 42.67 37.41C43.01 38.08 43.53 38.62 44.16 38.98C43.11 40.12 42.81 41.84 43.55 43.3C44.01 44.21 44.8 44.89 45.78 45.2C46.17 45.33 46.57 45.39 46.97 45.39C47.24 45.39 47.51 45.35 47.77 45.29V47H21.77V6.99998H47.77V23.66L44.46 25.99V25.98ZM52.46 10.69C52.79 11.05 52.95 11.52 52.93 12C52.91 12.48 52.69 12.94 52.32 13.28L49.77 15.68V10.5C50.62 10.01 51.9 10.07 52.46 10.69ZM24.3 2.99998H45.23C46.44 2.99998 47.46 3.85998 47.71 4.99998H21.83C22.08 3.85998 23.09 2.99998 24.31 2.99998H24.3ZM29.79 56.76C29.51 56.82 29.26 56.87 29.06 56.92C27.65 57.27 25.56 59.77 24.41 61.27L10.04 47.69C10.52 47.1 10.99 46.15 11.1 44.69C11.16 43.85 11.1 43.03 11.01 42.15C10.84 40.31 10.66 38.22 11.71 35.14C11.8 34.89 11.95 34.51 12.14 34.02C13.12 31.51 14.96 26.84 14.87 23.31C14.85 22.55 14.81 21.81 14.77 21.11C14.58 17.8 14.64 16.41 16.01 15.89C17.78 15.22 19.35 17.55 19.77 18.25V50.44C19.77 52.94 21.81 54.98 24.31 54.98H34.35C32.97 56.06 31.08 56.47 29.8 56.74L29.79 56.76ZM45.23 53H24.3C22.9 53 21.76 51.86 21.76 50.46V49H47.76V50.46C47.76 51.86 46.62 53 45.22 53H45.23ZM51.82 40.54C51.67 41 51.35 41.38 50.91 41.6L47.79 43.19C46.89 43.65 45.79 43.29 45.34 42.39C44.88 41.49 45.24 40.39 46.14 39.94L49.26 38.35C49.52 38.22 49.8 38.15 50.09 38.15C50.28 38.15 50.47 38.18 50.66 38.24C51.12 38.39 51.5 38.71 51.72 39.15C51.94 39.58 51.98 40.08 51.83 40.54H51.82ZM53.28 34.05L46.91 37.3C46.47 37.52 45.98 37.56 45.52 37.41C45.06 37.26 44.68 36.94 44.46 36.5C44 35.6 44.36 34.5 45.26 34.05L47.74 32.78C48.13 32.67 48.51 32.49 48.86 32.24L49.04 32.11L51.62 30.79C51.88 30.66 52.17 30.59 52.45 30.59C53.12 30.59 53.76 30.95 54.08 31.59C54.54 32.49 54.18 33.59 53.28 34.04V34.05Z"/>
<path d="M36.29 33.07C34.28 33.07 32.8 31.92 32.11 29.95H38.03V27.95H31.71C31.69 27.67 31.68 27.38 31.68 27.08C31.68 26.96 31.68 26.84 31.68 26.72H39.6V24.72H31.97C32.61 22.39 34.25 21.01 36.58 21.01C37.64 21.01 38.74 21.51 39.52 22.35L40.99 20.99C39.82 19.73 38.22 19.01 36.59 19.01C33.12 19.01 30.66 21.18 29.92 24.72H28.73V26.72H29.7C29.7 26.84 29.7 26.96 29.7 27.08C29.7 27.38 29.7 27.67 29.73 27.95H28.74V29.95H30.05C30.88 33.13 33.16 35.07 36.32 35.07C38.25 35.07 39.85 34.31 41.21 32.76L39.71 31.44C38.73 32.55 37.66 33.07 36.33 33.07H36.29Z"/>
</svg>
