<svg width="96" height="96" viewBox="0 0 96 96" fill="none" xmlns="http://www.w3.org/2000/svg">
<line x1="40" y1="63.8787" x2="55.8787" y2="48" stroke-width="3" stroke-linecap="round" stroke-linejoin="round"/>
<line x1="1.5" y1="-1.5" x2="23.9558" y2="-1.5" transform="matrix(-0.707107 -0.707107 -0.707107 0.707107 56 66)" stroke-width="3" stroke-linecap="round" stroke-linejoin="round"/>
<path fill-rule="evenodd" clip-rule="evenodd" d="M73.3657 45.4222C71.6778 43.8327 50.741 23.9607 48.6572 22.0056C48.21 21.5861 47.8555 21.431 47.4886 21.4864C47.123 21.431 46.7686 21.5861 46.3214 22.0056C44.2375 23.9607 23.3007 43.8327 21.6129 45.4222C21.1947 45.8155 20.8223 46.2115 21.0909 46.8346C21.3484 47.4341 21.869 47.5282 22.4561 47.5241C24.1287 47.513 25.8014 47.5158 27.474 47.5227C28.6066 47.5282 28.9943 47.9215 28.9943 49.0458C28.9957 56.8786 28.9957 64.7113 28.9957 72.5441C28.9957 73.8982 29.3197 74.2167 30.7043 74.2167C34.602 74.2167 60.3752 74.2167 64.2743 74.2167C65.6589 74.2167 65.9829 73.8982 65.9829 72.5441C65.9829 64.7113 65.9815 56.8786 65.9829 49.0458C65.9829 47.9215 66.372 47.5282 67.5032 47.5227C69.1758 47.5158 70.8484 47.513 72.521 47.5241C73.1081 47.5282 73.6287 47.4341 73.8877 46.8346C74.1563 46.2115 73.7824 45.8155 73.3657 45.4222Z" stroke-width="4" stroke-linecap="round" stroke-linejoin="round"/>
</svg>
