<svg width="96" height="96" viewBox="0 0 96 96" fill="none" xmlns="http://www.w3.org/2000/svg"><g fill="none">
<path fill-rule="evenodd" clip-rule="evenodd" d="M17 23.5C17 23.2239 17.2239 23 17.5 23H78.5C78.7761 23 79 23.2239 79 23.5V72.5C79 72.7761 78.7761 73 78.5 73H17.5C17.2239 73 17 72.7761 17 72.5V23.5Z" stroke-width="3.7"/>
<path d="M67.2 20V24.5106" stroke-width="3.7" stroke-linecap="round" stroke-linejoin="round"/>
<path d="M18 29L79 29" stroke-width="2" stroke-linecap="round" stroke-linejoin="round"/>
<path d="M28.4 20V24.5106" stroke-width="3.7" stroke-linecap="round" stroke-linejoin="round"/>
<path d="M41.2 20V24.5106" stroke-width="3.7" stroke-linecap="round" stroke-linejoin="round"/>
<path d="M54.2 20V24.5106" stroke-width="3.7" stroke-linecap="round" stroke-linejoin="round"/>
<path d="M27.0348 67.0001H28.3068V63.4121C28.3068 62.6801 28.1988 61.6361 28.1388 60.9161H28.1868L28.8108 62.7041L30.1668 66.2681H30.8028L32.1588 62.7041L32.7948 60.9161H32.8428C32.7708 61.6361 32.6628 62.6801 32.6628 63.4121V67.0001H33.9708V59.1521H32.4348L31.0548 63.0161L30.5388 64.5041H30.4908L29.9748 63.0161L28.5588 59.1521H27.0348V67.0001Z" />
<path d="M38.989 67.1441C41.029 67.1441 42.445 65.5841 42.445 63.0401C42.445 60.5081 41.029 59.0081 38.989 59.0081C36.937 59.0081 35.521 60.5081 35.521 63.0401C35.521 65.5841 36.937 67.1441 38.989 67.1441ZM38.989 65.9321C37.753 65.9321 36.949 64.8041 36.949 63.0401C36.949 61.2881 37.753 60.2201 38.989 60.2201C40.213 60.2201 41.017 61.2881 41.017 63.0401C41.017 64.8041 40.213 65.9321 38.989 65.9321Z" />
<path d="M43.9918 67.0001H45.3118V63.5681C45.3118 62.6921 45.2038 61.7441 45.1318 60.9161H45.1798L45.9958 62.5841L48.4318 67.0001H49.8598V59.1521H48.5398V62.5601C48.5398 63.4361 48.6478 64.4321 48.7198 65.2361H48.6718L47.8558 63.5681L45.4198 59.1521H43.9918V67.0001Z" />
<path d="M53.1517 63.7841L53.4277 62.8241C53.6797 61.9961 53.9077 61.1081 54.1237 60.2321H54.1717C54.3997 61.0961 54.6397 61.9961 54.8797 62.8241L55.1557 63.7841H53.1517ZM56.0797 67.0001H57.5557L54.9997 59.1521H53.3677L50.7997 67.0001H52.2277L52.8397 64.8761H55.4677L56.0797 67.0001Z" />
<path d="M59.5914 67.0001H60.9834V60.3281H63.2394V59.1521H57.3234V60.3281H59.5914V67.0001Z" />
<path d="M64.5231 67.0001H69.3591V65.8241H65.9151V63.5081H68.7351V62.3321H65.9151V60.3281H69.2391V59.1521H64.5231V67.0001Z" />
<path d="M52.4014 50.1581C51.1254 50.1581 49.9074 49.2301 49.5304 46.3301C50.3714 44.9961 51.3864 44.5031 52.3144 44.5031C53.7064 44.5031 54.7214 45.2281 54.7214 47.1711C54.7214 49.2591 53.6774 50.1581 52.4014 50.1581ZM58.3464 36.4411C57.1864 35.2521 55.4174 34.2371 52.9814 34.2371C49.0954 34.2371 45.5284 37.3401 45.5284 44.2131C45.5284 50.6801 48.9214 53.3481 52.4884 53.3481C55.8234 53.3481 58.6074 50.9991 58.6074 47.1711C58.6074 43.2851 56.2874 41.4871 53.1264 41.4871C51.9954 41.4871 50.4004 42.2121 49.4434 43.4301C49.5884 39.1381 51.2124 37.6881 53.2424 37.6881C54.3154 37.6881 55.4754 38.2971 56.1134 38.9931L58.3464 36.4411Z" />
<path d="M34 49L41 44.5L34 40" stroke-width="3" stroke-linecap="round" stroke-linejoin="round"/>
</g></svg>
