<svg width="96" height="96" xmlns="http://www.w3.org/2000/svg"><g stroke="#1593FD" fill="none" fill-rule="evenodd" stroke-linejoin="round"><path d="M28.5 64v12.604h38V64" fill="#1A96FD" stroke-width="4"/><path d="M66.687 58.002v-9.865c.001-1.147.397-1.549 1.553-1.554 1.708-.008 3.416-.01 5.124.001.6.004 1.131-.092 1.394-.704.038-.087-.38-.586-1.135-1.387-4.75-5.04-22.85-22.05-24.843-23.92-.53-.499-.93-.653-1.354-.536-.424-.117-.824.037-1.355.536-2.31 2.168-22.919 21.486-25.446 23.865-.426.401-.807.805-.532 1.442.263.612.795.708 1.394.704 1.708-.01 3.416-.009 5.124 0 1.156.004 1.553.406 1.553 1.553l.001 9.865" stroke-width="4" stroke-linecap="round"/><path stroke-width="1.47" d="M53.685 51.195v6.86h3.788v-6.86zM37.56 51.195v6.86h3.788v-6.86z"/><path d="M22 64h52.942" stroke-width="2.939" stroke-linecap="round"/></g></svg>