<svg width="96" height="96" xmlns="http://www.w3.org/2000/svg"><g fill="none" fill-rule="evenodd"><path d="M69.19 49H28.579a4.27 4.27 0 0 1-1.715-.359l-4.431-1.943-.86-.921L45.442 23.17a4.27 4.27 0 0 1 5.77-.094l20.812 18.458c2.2 1.953 1.814 5.495-.757 6.927A4.276 4.276 0 0 1 69.19 49" /><g stroke-linejoin="round"><path d="M74.226 45.438C71.7 43.06 51.09 23.741 48.78 21.573c-.53-.499-.93-.653-1.354-.536-.424-.117-.824.037-1.355.536-2.31 2.168-22.919 21.486-25.446 23.865-.426.401-.807.805-.532 1.442.263.612.795.708 1.394.704 1.708-.01 3.416-.009 5.124 0 1.156.004 1.553.406 1.553 1.553l.001 23.99c0 1.38.331 1.705 1.744 1.705h35.033c1.414 0 1.745-.325 1.745-1.706V49.137c.001-1.147.397-1.549 1.553-1.554 1.708-.008 3.416-.01 5.124.001.6.004 1.131-.092 1.394-.704.275-.637-.106-1.04-.532-1.442z" stroke-width="4" stroke-linecap="round"/><g stroke-width="1.47"><path d="M52.685 57.195v6.86h3.788v-6.86zM38.56 57.195v6.86h3.788v-6.86z"/></g></g></g></svg>